<svg width="14" height="14" viewBox="0 0 14 14" fill="none" xmlns="http://www.w3.org/2000/svg">
<path d="M2.18821 1.03443C1.86278 0.706947 1.33514 0.706947 1.0097 1.03443C0.684266 1.36191 0.684266 1.89287 1.0097 2.22035L5.82198 7.0629L1.00975 11.9054C0.684316 12.2329 0.684315 12.7638 1.00975 13.0913C1.33519 13.4188 1.86283 13.4188 2.18826 13.0913L7.00049 8.24882L11.8127 13.0913C12.1382 13.4188 12.6658 13.4188 12.9912 13.0913C13.3167 12.7638 13.3167 12.2329 12.9912 11.9054L8.17901 7.0629L12.9913 2.22035C13.3167 1.89287 13.3167 1.36191 12.9913 1.03443C12.6658 0.706947 12.1382 0.706947 11.8128 1.03443L7.00049 5.87698L2.18821 1.03443Z" fill="#A1A1A1"/>
</svg>
