<svg width="197" height="194" viewBox="0 0 197 194" fill="none" xmlns="http://www.w3.org/2000/svg">
<path fill-rule="evenodd" clip-rule="evenodd" d="M115.686 21.3388L69.4872 37.9662L68.406 22.748L24.5537 21.4307L84.1006 0L85.1817 15.2181L129.036 16.5349L115.686 21.3388V21.3388ZM78.3194 29.0619L100.517 21.0736L80.1406 20.4623L79.2216 7.47987L53.0687 16.8924L73.4492 17.5059L74.3662 30.4841L78.3194 29.0619V29.0619ZM17.6512 90.3128L55.9195 112.688L64.7343 108.883L26.4744 86.5125L17.6512 90.3128V90.3128ZM156.112 81.9564H176.738L157.38 64.411L156.112 81.9564ZM165.284 119.409V110.939L159.432 107.547L142.179 114.525L170.834 131.128L188.043 124.132L170.691 114.074V119.409H165.284V119.409ZM165.284 104.702V88.1156H155.667L155.229 94.1653H149.799L153.335 45.4939H146.899V40.0806H189.077V45.4939H182.642L186.164 94.1653H180.75L180.312 88.1156H170.691V107.836L197 123.085V183.141L170.427 193.965L133.347 172.477V140.163H73.4505V145.267L90.819 155.423V175.112L46.6299 194L0 166.911V147.154L14.7597 140.853L8.96796 137.467V88.1716L26.8468 80.4684L73.4505 107.713V134.75H133.347V112.276L159.854 101.555L165.284 104.702V104.702ZM177.531 49.6356L161.37 60.7599L179.525 77.2159L177.531 49.6356ZM157.947 56.5718L172.947 46.2455H158.693L157.947 56.5718ZM167.992 0C172.518 0 176.629 1.84756 179.606 4.82807C182.587 7.79967 184.428 11.9177 184.428 16.4607C184.428 21.0016 182.587 25.1192 179.612 28.0976C176.64 31.0734 172.527 32.9189 167.992 32.9189C163.463 32.9189 159.35 31.0714 156.373 28.0909C153.392 25.1193 151.549 21.0037 151.549 16.4607C151.549 11.9177 153.39 7.79973 156.364 4.82134C159.339 1.84296 163.452 0 167.992 0V0ZM175.791 8.64105C173.803 6.64473 171.043 5.41312 167.992 5.41312C164.942 5.41312 162.182 6.64904 160.186 8.6479C158.19 10.6463 156.955 13.4099 156.955 16.4607C156.955 19.5111 158.192 22.2726 160.188 24.271C162.176 26.2741 164.938 27.5057 167.992 27.5057C171.036 27.5057 173.799 26.2652 175.791 24.271C177.787 22.2726 179.021 19.509 179.021 16.4607C179.021 13.4099 177.787 10.6463 175.791 8.64105ZM167.925 135.679L138.754 118.778V169.372L167.925 186.277V135.679ZM173.332 135.947V186.946L191.593 179.508V128.583L173.332 135.947V135.947ZM178.863 139.302L187.266 135.947V141.748L178.863 145.103V139.302ZM178.863 150.547L187.266 147.191V152.992L178.863 156.348V150.547V150.547ZM178.863 161.792L187.266 158.436V164.237L178.863 167.592V161.792ZM14.3746 94.663V134.365L53.0302 156.966V117.262L14.3746 94.663V94.663ZM55.5407 164.697L20.5557 144.246L8.74456 149.289L47.0065 171.66L82.1689 156.628L73.4505 151.533L73.4527 156.773L55.5407 164.697V164.697ZM58.4369 117.488V157.562L68.0438 153.409V113.348L58.4369 117.488V117.488ZM5.40667 153.744V163.812L44.1083 186.295V176.229L5.40667 153.744V153.744ZM49.515 176.457V186.9L85.4128 171.554V161.112L49.515 176.457Z" fill="url(#paint0_linear_1333_13206)"/>
<defs>
<linearGradient id="paint0_linear_1333_13206" x1="22.8774" y1="12.1251" x2="186.105" y2="26.6906" gradientUnits="userSpaceOnUse">
<stop stop-color="#DD4C05"/>
<stop offset="1" stop-color="#D13730"/>
</linearGradient>
</defs>
</svg>
