<svg width="194" height="194" viewBox="0 0 194 194" fill="none" xmlns="http://www.w3.org/2000/svg">
<path fill-rule="evenodd" clip-rule="evenodd" d="M0.853433 8.80738L10.3508 0L64.3005 0.0600249V26.524L100.139 42.447V9.62865L110.317 0H155.586V69.0448L145.544 78.6216L100.139 78.6842V48.2456L64.3005 32.3205V65.143L107.166 118.299L110.319 115.316H155.588V184.36L145.546 193.938L100.141 194V124.945L103.294 121.961L62.2374 71.0449L54.0702 78.6842H42.1583L46.0017 115.316H55.4474V184.36L45.4045 193.938L0 194V124.945L10.1783 115.316H40.6561L36.8106 78.6842H0V9.6008L0.853433 8.80738ZM177.278 159.539L169.138 156.829L159.831 175.49L174.21 189.877L181.675 182.401C198.129 165.92 198.105 139.221 181.625 122.768L174.161 115.316L159.779 129.723L169.113 148.38L177.284 145.619C178.528 150.169 178.53 154.965 177.297 159.52L177.278 159.541V159.539ZM166.205 130.758L174.172 122.774L177.903 126.499C192.322 140.893 192.341 164.255 177.946 178.676L174.221 182.403L166.241 174.436L171.82 163.251L180.546 166.223L181.399 163.801C183.964 156.519 184.016 148.649 181.401 141.385L180.526 138.958L171.785 141.913L166.205 130.758ZM146.287 185.895L108.569 185.957V124.259L105.465 127.195V188.676L143.437 188.613L146.287 185.895ZM113.894 120.623V180.634L150.264 180.571V130.836L119.183 130.898V125.574L150.264 125.512V120.612L113.894 120.624V120.623ZM140.057 158.976V164.297H145.058V158.976H140.057ZM140.057 148.332V153.652H145.058V148.332H140.057ZM140.057 137.686V143.006H145.058V137.686H140.057ZM129.732 169.623V174.943H134.733V169.623H129.732ZM129.732 158.976V164.297H134.733V158.976H129.732ZM124.408 158.976H119.408V164.297H124.408V158.976ZM129.732 148.332V153.652H134.733V148.332H129.732ZM124.408 148.332H119.408V153.652H124.408V148.332ZM129.732 137.686V143.006H134.733V137.686H129.732ZM124.408 137.686H119.408V143.006H124.408V137.686ZM77.1367 159.539L68.9974 156.829L59.6896 175.49L74.0692 189.877L81.5343 182.401C97.9875 165.92 97.9637 139.221 81.4847 122.768L74.0196 115.316L59.6379 129.723L68.9715 148.38L77.1433 145.619C78.3868 150.169 78.3893 154.965 77.1562 159.52L77.1367 159.541V159.539ZM66.0637 130.758L74.0304 122.774L77.7617 126.499C92.1805 140.893 92.1997 164.255 77.8051 178.676L74.08 182.403L66.1003 174.436L71.6789 163.251L80.4045 166.223L81.258 163.801C83.8233 156.519 83.875 148.649 81.2605 141.385L80.3854 138.958L71.6443 141.913L66.0637 130.758ZM46.1463 185.895L8.42808 185.957V124.259L5.32396 127.195V188.676L43.2964 188.613L46.1463 185.895ZM13.7525 120.623V180.634L50.123 180.571V130.836L19.0423 130.898V125.574L50.123 125.512V120.612L13.7525 120.624V120.623ZM39.9168 158.976V164.297H44.9174V158.976H39.9168ZM39.9168 148.332V153.652H44.9174V148.332H39.9168ZM39.9168 137.686V143.006H44.9174V137.686H39.9168ZM29.5914 169.623V174.943H34.5924V169.623H29.5914ZM29.5914 158.976V164.297H34.5924V158.976H29.5914ZM24.267 158.976H19.2664V164.297H24.267V158.976ZM29.5914 148.332V153.652H34.5924V148.332H29.5914ZM24.267 148.332H19.2664V153.652H24.267V148.332ZM29.5914 137.686V143.006H34.5924V137.686H29.5914ZM24.267 137.686H19.2664V143.006H24.267V137.686ZM36.2522 73.3598L35.9655 70.642H8.59185V8.8744L5.32396 11.9051V73.3598H36.2522ZM35.4071 65.3176L34.4028 55.7557H30.9795V50.4313H42.8267V55.7557H39.7505L40.7552 65.3176H57.6202L35.4871 37.8707H30.9795V32.5467H42.8267V37.8707H42.3092L58.9762 58.5405V29.9556L36.541 19.9861H30.9795V14.6622H42.8267V16.9812L58.9762 24.157V5.35646L13.9162 5.30686V65.3176H35.4071ZM41.3132 70.642L41.5979 73.3598H52.0095L54.9148 70.642H41.3132ZM177.276 44.2235L169.136 41.5136L159.829 60.1746L174.208 74.5608L181.673 67.0853C198.126 50.6038 198.103 23.9049 181.623 7.45173L174.159 0L159.777 14.4075L169.11 33.0639L177.282 30.3028C178.526 34.8533 178.528 39.6492 177.295 44.2039L177.276 44.2247V44.2235ZM166.203 15.4423L174.169 7.45796L177.901 11.1831C192.319 25.5777 192.339 48.9395 177.944 63.3603L174.219 67.0875L166.239 59.1203L171.817 47.9352L180.544 50.9076L181.397 48.4848C183.962 41.2032 184.014 33.3335 181.399 26.0694L180.524 23.6419L171.783 26.5972L166.203 15.4423ZM146.285 70.5795L108.567 70.642V8.9432L105.463 11.8793V73.3598L143.435 73.2974L146.285 70.5795ZM113.891 5.30686V65.3176L150.262 65.2552V15.5197L119.181 15.5823V10.2583L150.262 10.1958V5.29605L113.891 5.30864V5.30686ZM140.055 43.6606V48.9807H145.056V43.6606H140.055ZM140.055 33.0163V38.3366H145.056V33.0163H140.055ZM140.055 22.3702V27.6903H145.056V22.3702H140.055ZM129.73 54.3071V59.627H134.731V54.3071H129.73ZM129.73 43.6606V48.9807H134.731V43.6606H129.73ZM124.406 43.6606H119.405V48.9807H124.406V43.6606ZM129.73 33.0163V38.3366H134.731V33.0163H129.73ZM124.406 33.0163H119.405V38.3366H124.406V33.0163ZM129.73 22.3702V27.6903H134.731V22.3702H129.73ZM124.406 22.3702H119.405V27.6903H124.406V22.3702Z" fill="#09090A"/>
</svg>
