<svg width="178" height="178" viewBox="0 0 178 178" fill="none" xmlns="http://www.w3.org/2000/svg">
<path fill-rule="evenodd" clip-rule="evenodd" d="M77.9608 5.24677L4.88453 4.88892V58.3421H77.9608V5.24677V5.24677ZM95.2655 79.3825H73.9304V83.8959H8.91497V69.672H27.8571V63.2267H0V0L2.4522 0.0114344L82.8457 0.407206V63.2264H54.9886V69.6717H73.9304V75.8937H95.2655V53.2429H177.998V82.7125H154.391L154.403 94.488H178V157.331H150.145V163.776H169.085V178H104.069V163.776H123.011V157.331H95.1561V94.488H97.5984H150.93L150.922 82.7125H116.307L82.8492 97.1558V157.331H54.9921V163.776H73.9338V178H8.91841V163.776H27.8606V157.331H0.00341276V94.488H2.44569H80.2406L107.518 82.7125H95.2689V79.3821L95.2655 79.3825ZM52.546 74.5571H13.7999V79.0108H69.0454V74.5571H52.546ZM32.7417 69.672H50.1037V63.2286H32.7417V69.672ZM173.114 99.373H100.04V152.447H173.114V99.373ZM147.701 168.662H108.953V173.115H164.198V168.662H147.701ZM127.895 163.777H145.258V157.334H127.895V163.777ZM77.9608 99.373H4.88453V152.447H77.9608V99.373ZM52.546 168.662H13.7999V173.115H69.0454V168.662H52.546ZM32.7417 163.777H50.1037V157.334H32.7417V163.777ZM173.114 58.1284H100.15V77.8283H173.114V58.1284V58.1284ZM143.194 62.956H168.147V67.8999H143.194V62.956ZM153.045 13.312H177.998V18.2559H153.045V13.312ZM153.045 26.6278H177.998V31.5716H153.045V26.6278ZM124.163 0H149.117V4.94434H124.163V0ZM124.163 13.312H149.117V18.2559H124.163V13.312ZM124.163 26.6278H149.117V31.5716H124.163V26.6278ZM95.2811 0H120.234V4.94434H95.2811V0ZM95.2811 13.312H120.234V18.2559H95.2811V13.312ZM95.2811 26.6278H120.234V31.5716H95.2811V26.6278ZM95.2811 39.9375H120.234V44.8818H95.2811V39.9375ZM105.1 62.956H110.044V67.8999H105.1V62.956ZM153.045 0H177.998V4.94434H153.045V0Z" fill="#09090A"/>
</svg>
