<svg width="26" height="26" viewBox="0 0 26 26" fill="none" xmlns="http://www.w3.org/2000/svg">
<path d="M14.346 16.4972L16.2358 12.7131L25.9895 15.9663L26 25.9961H20.7914C9.30806 25.9961 0 16.6875 0 5.20424V0.00450158L10.0385 0.00390625L13.2969 9.76004L9.48596 11.6502C10.6412 13.6686 12.3146 15.3414 14.333 16.4972H14.346ZM8.16059 2.60616L2.59892 2.60561V5.20483C2.59892 15.2522 10.744 23.397 20.7914 23.397H23.39V17.8353L17.5424 15.8864L15.5406 19.9656L14.3978 19.4209C10.9615 17.7824 8.19855 15.0546 6.5753 11.6114L6.03302 10.4614L10.1097 8.44078L8.16059 2.60616Z" fill="url(#paint0_linear_1070_9876)"/>
<defs>
<linearGradient id="paint0_linear_1070_9876" x1="3.01935" y1="1.62844" x2="24.5671" y2="3.52252" gradientUnits="userSpaceOnUse">
<stop stop-color="#DD4C05"/>
<stop offset="1" stop-color="#D13730"/>
</linearGradient>
</defs>
</svg>
