<svg width="113" height="23" viewBox="0 0 113 23" fill="none" xmlns="http://www.w3.org/2000/svg">
<path fill-rule="evenodd" clip-rule="evenodd" d="M11.0718 0V2.20724H13.2789V0H11.0718Z" fill="#003CF3"/>
<path fill-rule="evenodd" clip-rule="evenodd" d="M11.0718 2.22339V4.43062H13.2789V2.22339H11.0718Z" fill="#9FE4F5"/>
<path fill-rule="evenodd" clip-rule="evenodd" d="M8.79565 4.41455V6.62179H11.0361V4.41455H8.79565Z" fill="#EEEDED"/>
<path fill-rule="evenodd" clip-rule="evenodd" d="M6.6217 4.41455V6.62179H8.83344V4.41455H6.6217Z" fill="#9FE4F5"/>
<path fill-rule="evenodd" clip-rule="evenodd" d="M6.62179 4.41455V6.62179H4.41455V4.41455H6.62179Z" fill="#039BFA"/>
<path fill-rule="evenodd" clip-rule="evenodd" d="M2.2428 4.41455V6.62179H4.41454V4.41455H2.2428Z" fill="#003CF3"/>
<path fill-rule="evenodd" clip-rule="evenodd" d="M13.2434 8.83601V6.6217H11.0361V8.83601H13.2434Z" fill="#EEEDED"/>
<path fill-rule="evenodd" clip-rule="evenodd" d="M8.82898 8.83594V11.0362H11.0361V8.83594H8.82898Z" fill="#EEEDED"/>
<path fill-rule="evenodd" clip-rule="evenodd" d="M8.82898 13.2435V11.0363H11.0361V13.2435H8.82898Z" fill="#EEEDED"/>
<path fill-rule="evenodd" clip-rule="evenodd" d="M13.2433 8.83601V6.6217H15.4861V8.83601H13.2433Z" fill="#42DAEC"/>
<path fill-rule="evenodd" clip-rule="evenodd" d="M17.6934 8.83601V6.6217H15.4506V8.83601H17.6934Z" fill="#1190E6"/>
<path fill-rule="evenodd" clip-rule="evenodd" d="M17.658 8.83601V6.6217H19.8652V8.83601H17.658Z" fill="#003CF3"/>
<path fill-rule="evenodd" clip-rule="evenodd" d="M0 13.2587V15.4658H2.1717V13.2587H0Z" fill="#BB1E10"/>
<path fill-rule="evenodd" clip-rule="evenodd" d="M4.37902 13.2587V15.4658H2.20728V13.2587H4.37902Z" fill="#E25303"/>
<path fill-rule="evenodd" clip-rule="evenodd" d="M4.41455 13.2587V15.4658H6.62179V13.2587H4.41455Z" fill="#FFB200"/>
<path fill-rule="evenodd" clip-rule="evenodd" d="M8.82894 13.2587V15.4658H6.6217V13.2587H8.82894Z" fill="#F0DB3E"/>
<path fill-rule="evenodd" clip-rule="evenodd" d="M13.2434 22.0876V19.8805H11.0304V22.0876H13.2434Z" fill="#BB1E10"/>
<path fill-rule="evenodd" clip-rule="evenodd" d="M13.2434 17.6733V19.8806H11.0304V17.6733H13.2434Z" fill="#E25303"/>
<path fill-rule="evenodd" clip-rule="evenodd" d="M13.2434 17.6734V15.4661H11.0304V17.6734H13.2434Z" fill="#FFB200"/>
<path fill-rule="evenodd" clip-rule="evenodd" d="M13.2434 13.2587V15.4659H11.0304V13.2587H13.2434Z" fill="#F0DB3E"/>
<path fill-rule="evenodd" clip-rule="evenodd" d="M25.1126 15.1407C24.8894 15.0481 24.6787 14.9223 24.4903 14.7906L24.4123 14.7358L24.8005 14.1618L24.9034 14.2327C25.0968 14.3657 25.4573 14.6143 25.8269 14.6143C26.1034 14.6143 26.2964 14.4972 26.4547 14.2887C26.6184 14.072 26.7046 13.863 26.8481 13.4803L23.4335 6.62644H24.2355L26.7961 11.7718C26.9535 12.0872 27.1099 12.4501 27.2028 12.6719C27.2791 12.4515 27.4047 12.0942 27.5221 11.7812L29.4579 6.62644H30.2382L27.4055 13.9407C27.2544 14.3255 27.0609 14.6608 26.8072 14.9018C26.5469 15.1487 26.2261 15.2964 25.8269 15.2964C25.5816 15.2964 25.3401 15.2354 25.1126 15.1407ZM32.5422 15.1411V6.62634H37.0435V7.30811H33.2606V15.1411H32.5422ZM50.5728 15.1411H49.9515V6.62634H50.6697V10.2128H52.1065L54.4056 6.62634H55.2689L52.7175 10.5422L55.5794 15.1411H54.7166L52.1051 10.8947H50.6697V15.1411H50.5728ZM38.4497 15.1411C38.6751 12.3029 38.902 9.46423 39.1312 6.62634H39.7944L42.31 12.0519C42.4338 12.3156 42.5675 12.6326 42.6493 12.8304C42.7309 12.6325 42.8645 12.3156 42.9885 12.0519L45.5041 6.62634H46.1675L46.8488 15.1411H46.1297L45.6157 8.75712C45.5988 8.56483 45.5894 8.30892 45.5845 8.08811C45.4998 8.31665 45.3938 8.58884 45.2991 8.79005L42.979 13.7145H42.3198C41.837 12.6853 40.5255 9.50934 40.0107 8.78864C39.9182 8.58495 39.8048 8.29426 39.7144 8.05389C39.7096 8.28556 39.7004 8.55808 39.6828 8.75712L39.1688 15.1411H38.4497ZM57.3121 10.382H59.2006V12.2706H57.3121V10.382ZM62.8651 15.1393H64.1469V7.75119H67.3255V6.62634H59.6863V7.75119H62.8651V15.1393ZM67.0567 11.8299C67.0567 13.792 68.4957 15.2964 70.5756 15.2964C71.4912 15.2964 72.4985 14.9432 73.1393 14.3545L72.603 13.4257C72.0798 13.8967 71.3603 14.1976 70.6539 14.1976C69.4638 14.1976 68.4435 13.4257 68.378 11.9999H73.1917C73.2178 11.8168 73.2441 11.6336 73.2441 11.4636C73.2441 9.76309 72.2499 8.36348 70.3793 8.36348C68.4957 8.36348 67.0567 9.72394 67.0567 11.8299ZM68.4172 11.0843C68.6002 9.98541 69.3721 9.34459 70.3531 9.34459C71.2165 9.34459 71.9229 9.94629 71.9621 11.0843H68.4172ZM74.2834 15.2047C76.2323 15.1 76.9912 13.5565 76.9912 10.5611V9.56683H78.94V15.1393H80.209V8.52054H75.7746V10.5611C75.7746 12.9548 75.2514 13.9227 74.2834 14.0667V15.2047ZM81.9678 11.8299C81.9678 13.792 83.4066 15.2964 85.4864 15.2964C86.4022 15.2964 87.4093 14.9432 88.0501 14.3545L87.5141 13.4257C86.9908 13.8967 86.2713 14.1976 85.5649 14.1976C84.3746 14.1976 83.3543 13.4257 83.2888 11.9999H88.1025C88.1288 11.8168 88.1549 11.6336 88.1549 11.4636C88.1549 9.76309 87.1608 8.36348 85.2901 8.36348C83.4066 8.36348 81.9678 9.72394 81.9678 11.8299ZM83.3281 11.0843C83.5114 9.98541 84.283 9.34459 85.264 9.34459C86.1274 9.34459 86.8339 9.94629 86.873 11.0843H83.3281ZM89.9138 15.1393H91.1825V12.2747H92.1375L94.1125 15.1393H95.617L93.1447 11.6991V11.6729L95.3553 8.52054H93.9164L92.1114 11.1889H91.1825V8.52054H89.9138V15.1393ZM96.2638 11.8168C96.2638 13.8313 97.8598 15.2964 99.8349 15.2964C101.797 15.2964 103.393 13.8313 103.393 11.8168C103.393 9.81549 101.797 8.36348 99.8219 8.36348C97.8598 8.36348 96.2638 9.81549 96.2638 11.8168ZM97.5588 11.8168C97.5588 10.4433 98.5792 9.46228 99.8349 9.46228C101.078 9.46228 102.111 10.4433 102.111 11.8168C102.111 13.2033 101.078 14.1976 99.8349 14.1976C98.5792 14.1976 97.5588 13.2033 97.5588 11.8168ZM104.877 15.1393H106.107L106.394 11.202C106.421 10.8095 106.381 10.064 106.381 10.064H106.407C106.407 10.064 106.617 10.5611 106.826 11.0451L108.396 14.3414H109.481L111.051 11.0319C111.3 10.5218 111.47 10.064 111.47 10.064H111.496C111.496 10.064 111.47 10.8095 111.483 11.202L111.771 15.1393H113L112.425 8.52054H111.038L109.311 12.2615C109.141 12.6671 108.945 13.1511 108.945 13.1511H108.919C108.919 13.1511 108.736 12.6538 108.553 12.2615L106.865 8.52054H105.453L104.877 15.1393Z" fill="#EEEDED"/>
</svg>
