<svg width="154" height="30" viewBox="0 0 154 30" fill="none" xmlns="http://www.w3.org/2000/svg">
<path fill-rule="evenodd" clip-rule="evenodd" d="M15.038 0V2.99792H18.0357V0H15.038Z" fill="#003CF3"/>
<path fill-rule="evenodd" clip-rule="evenodd" d="M15.038 3.0199V6.01782H18.0357V3.0199H15.038Z" fill="#9FE4F5"/>
<path fill-rule="evenodd" clip-rule="evenodd" d="M11.9465 5.99597V8.99389H14.9895V5.99597H11.9465Z" fill="#EEEDED"/>
<path fill-rule="evenodd" clip-rule="evenodd" d="M8.99384 5.99597V8.99389H11.9979V5.99597H8.99384Z" fill="#9FE4F5"/>
<path fill-rule="evenodd" clip-rule="evenodd" d="M8.99383 5.99597V8.99389H5.99591V5.99597H8.99383Z" fill="#039BFA"/>
<path fill-rule="evenodd" clip-rule="evenodd" d="M3.0462 5.99597V8.99389H5.99592V5.99597H3.0462Z" fill="#003CF3"/>
<path fill-rule="evenodd" clip-rule="evenodd" d="M17.9874 12.0013V8.99377H14.9895V12.0013H17.9874Z" fill="#EEEDED"/>
<path fill-rule="evenodd" clip-rule="evenodd" d="M11.9918 12.0012V14.9897H14.9896V12.0012H11.9918Z" fill="#EEEDED"/>
<path fill-rule="evenodd" clip-rule="evenodd" d="M11.9918 17.9877V14.9897H14.9896V17.9877H11.9918Z" fill="#EEEDED"/>
<path fill-rule="evenodd" clip-rule="evenodd" d="M17.9874 12.0013V8.99377H21.0336V12.0013H17.9874Z" fill="#42DAEC"/>
<path fill-rule="evenodd" clip-rule="evenodd" d="M24.0316 12.0013V8.99377H20.9854V12.0013H24.0316Z" fill="#1190E6"/>
<path fill-rule="evenodd" clip-rule="evenodd" d="M23.9833 12.0013V8.99377H26.9813V12.0013H23.9833Z" fill="#003CF3"/>
<path fill-rule="evenodd" clip-rule="evenodd" d="M0 18.0082V21.006H2.94966V18.0082H0Z" fill="#BB1E10"/>
<path fill-rule="evenodd" clip-rule="evenodd" d="M5.94764 18.0082V21.006H2.99792V18.0082H5.94764Z" fill="#E25303"/>
<path fill-rule="evenodd" clip-rule="evenodd" d="M5.99591 18.0082V21.006H8.99383V18.0082H5.99591Z" fill="#FFB200"/>
<path fill-rule="evenodd" clip-rule="evenodd" d="M11.9918 18.0082V21.006H8.99384V18.0082H11.9918Z" fill="#F0DB3E"/>
<path fill-rule="evenodd" clip-rule="evenodd" d="M17.9875 30V27.0022H14.9817V30H17.9875Z" fill="#BB1E10"/>
<path fill-rule="evenodd" clip-rule="evenodd" d="M17.9875 24.0043V27.0023H14.9817V24.0043H17.9875Z" fill="#E25303"/>
<path fill-rule="evenodd" clip-rule="evenodd" d="M17.9875 24.0043V21.0063H14.9817V24.0043H17.9875Z" fill="#FFB200"/>
<path fill-rule="evenodd" clip-rule="evenodd" d="M17.9875 18.0083V21.0063H14.9817V18.0083H17.9875Z" fill="#F0DB3E"/>
<path fill-rule="evenodd" clip-rule="evenodd" d="M35.9546 24.8147H35.4332V21.45H34.1592C34.134 21.9337 34.101 22.3534 34.0588 22.7091C34.0166 23.065 33.9656 23.3689 33.9056 23.6214C33.8456 23.8737 33.7775 24.0787 33.7013 24.2373C33.6251 24.3958 33.5418 24.5212 33.4513 24.6123C33.3608 24.7035 33.2632 24.7657 33.1593 24.799C33.0553 24.8323 32.9451 24.8489 32.8287 24.8489C32.7319 24.8489 32.6575 24.8402 32.6057 24.8235C32.5536 24.8069 32.5276 24.7823 32.5276 24.749V24.4257H32.7157C32.7875 24.4257 32.8583 24.4117 32.9281 24.3845C32.998 24.3574 33.0652 24.303 33.1298 24.2207C33.1942 24.1383 33.2551 24.0208 33.3124 23.8685C33.3698 23.7159 33.4218 23.5145 33.4685 23.2638C33.5149 23.0132 33.5553 22.7066 33.5893 22.3447C33.6234 21.9829 33.6494 21.5508 33.6672 21.0479H35.9546V24.8147ZM39.8779 21.0479L38.3136 24.3232C38.2652 24.4266 38.2131 24.5115 38.1567 24.579C38.1003 24.6465 38.0393 24.6999 37.9749 24.7394C37.9104 24.7789 37.8405 24.8069 37.7653 24.8235C37.6899 24.8402 37.6092 24.8489 37.5233 24.8489C37.4265 24.8489 37.3521 24.8402 37.3002 24.8235C37.2482 24.8069 37.2223 24.7823 37.2223 24.749V24.4257H37.4104C37.4552 24.4257 37.5001 24.4203 37.5448 24.4109C37.5895 24.4011 37.6326 24.3845 37.6739 24.3599C37.7151 24.3355 37.7544 24.3022 37.7921 24.261C37.8297 24.2199 37.8638 24.1681 37.8942 24.1051L38.0823 23.7212L36.5342 21.0479H37.0208C37.0672 21.0479 37.104 21.0584 37.131 21.0803C37.1577 21.1022 37.1811 21.1311 37.2008 21.1663L38.1522 22.8748C38.2185 22.9992 38.2724 23.1255 38.3136 23.2533C38.3332 23.1902 38.3557 23.1271 38.3798 23.0641C38.4041 23.0009 38.4308 22.9379 38.4614 22.8748L39.2703 21.1663C39.2847 21.1364 39.307 21.1092 39.3367 21.0848C39.3663 21.0602 39.403 21.0479 39.4478 21.0479H39.8779ZM43.011 21.0479V24.8147H42.4867V23.1849C42.2825 23.2375 42.0835 23.2787 41.89 23.3095C41.6966 23.34 41.5156 23.3549 41.3462 23.3532C41.1769 23.3514 41.0209 23.3313 40.8794 23.2927C40.7379 23.2542 40.6169 23.1919 40.5157 23.107C40.4144 23.022 40.3356 22.9116 40.2792 22.7758C40.2228 22.6399 40.1941 22.4744 40.1941 22.2781V21.0479H40.7156V22.2807C40.7156 22.4542 40.7514 22.5945 40.823 22.7012C40.8946 22.8082 41.004 22.8827 41.1509 22.9247C41.2978 22.9667 41.4824 22.9782 41.7037 22.9589C41.9249 22.9396 42.1857 22.8914 42.4867 22.8143V21.0479H43.011ZM48.8639 21.0479V24.8147H44.0608V21.0479H44.5823V24.4152H46.195V21.0479H46.7164V24.4152H48.3398V21.0479H48.8639ZM53.037 21.0479V24.8147H52.5156V22.1388C52.5156 22.0634 52.5174 21.9846 52.521 21.9031C52.5246 21.8216 52.5326 21.7357 52.5452 21.6446C52.5147 21.7234 52.4825 21.797 52.4484 21.8654C52.4144 21.9337 52.3794 21.9933 52.3436 22.0442L50.5374 24.6543C50.5122 24.6946 50.48 24.7315 50.4406 24.7648C50.4011 24.7981 50.3555 24.8147 50.3035 24.8147H49.9165V21.0479H50.4379V23.7265C50.4379 23.8018 50.4361 23.8799 50.4325 23.9614C50.4289 24.0427 50.4209 24.1304 50.4083 24.2233C50.4388 24.1427 50.472 24.0682 50.507 23.9998C50.5418 23.9315 50.576 23.871 50.6098 23.8185L52.4161 21.2083C52.4413 21.1679 52.4734 21.1311 52.5129 21.0978C52.5524 21.0646 52.5979 21.0479 52.65 21.0479H53.037H53.037ZM56.4656 24.3994L56.4632 24.8147H54.0899V21.0479H56.4632V21.4632H54.6114V22.7144H56.1111V23.114H54.6114V24.3994H56.4659H56.4656ZM59.7071 23.0009C59.856 23.0009 59.9877 22.9816 60.1014 22.9432C60.2151 22.9046 60.311 22.8503 60.3889 22.7811C60.4669 22.7119 60.5252 22.6295 60.5647 22.5331C60.604 22.4367 60.6237 22.3307 60.6237 22.2151C60.6237 21.9749 60.5484 21.7874 60.397 21.6525C60.2457 21.5175 60.0155 21.45 59.7071 21.45H59.0889V23.0009H59.7071ZM59.7071 21.0479C59.9508 21.0479 60.1633 21.0751 60.3433 21.1302C60.5234 21.1854 60.6721 21.2643 60.7904 21.366C60.9087 21.4676 60.9974 21.5903 61.0556 21.7339C61.1137 21.8777 61.1425 22.0381 61.1425 22.2151C61.1425 22.3903 61.1111 22.5506 61.0484 22.696C60.9856 22.8415 60.8943 22.9668 60.7734 23.072C60.6524 23.1771 60.5028 23.2586 60.3245 23.3173C60.1461 23.3759 59.9401 23.4058 59.7071 23.4058H59.0889V24.8147H58.5703V21.0479H59.7071ZM64.2431 24.3994L64.2407 24.8147H61.8674V21.0479H64.2407V21.4632H62.3888V22.7144H63.8885V23.114H62.3888V24.3994H64.2434H64.2431ZM69.8434 21.0479V24.8147H65.0404V21.0479H65.5618V24.4152H67.1745V21.0479H67.696V24.4152H69.3194V21.0479H69.8434ZM73.2721 24.3994L73.2697 24.8147H70.8963V21.0479H73.2697V21.4632H71.4178V22.7144H72.9175V23.114H71.4178V24.3994H73.2723H73.2721ZM77.1898 21.0479V24.8147H76.6684V23.1009H74.5908V24.8147H74.0693V21.0479H74.5908V22.7276H76.6684V21.0479H77.1898ZM81.3629 21.0479V24.8147H80.8415V22.1388C80.8415 22.0634 80.8433 21.9846 80.8469 21.9031C80.8505 21.8216 80.8586 21.7357 80.8712 21.6446C80.8406 21.7234 80.8085 21.797 80.7744 21.8654C80.7404 21.9337 80.7054 21.9933 80.6696 22.0442L78.8633 24.6543C78.8382 24.6946 78.806 24.7315 78.7665 24.7648C78.7271 24.7981 78.6814 24.8147 78.6294 24.8147H78.2425V21.0479H78.7639V23.7265C78.7639 23.8018 78.7621 23.8799 78.7585 23.9614C78.7549 24.0427 78.7468 24.1304 78.7342 24.2233C78.7648 24.1427 78.798 24.0682 78.8329 23.9998C78.8679 23.9315 78.9019 23.871 78.9359 23.8185L80.7421 21.2083C80.7672 21.1679 80.7994 21.1311 80.8389 21.0978C80.8783 21.0646 80.924 21.0479 80.976 21.0479H81.3629ZM84.488 22.7906V21.4527H83.7246C83.5759 21.4527 83.4486 21.4684 83.3429 21.5C83.2372 21.5315 83.1502 21.5762 83.0822 21.6349C83.0141 21.6936 82.9648 21.7637 82.9334 21.8452C82.9021 21.9267 82.8859 22.0179 82.8859 22.1177C82.8859 22.2229 82.9021 22.3167 82.9334 22.3999C82.9648 22.4831 83.0141 22.5542 83.0812 22.6119C83.1484 22.6698 83.2354 22.7135 83.342 22.7443C83.4486 22.7749 83.5759 22.7906 83.7246 22.7906H84.488ZM85.0066 24.8147H84.488V23.1929H83.9637C83.9153 23.1929 83.8706 23.1965 83.8285 23.2042C83.7864 23.2121 83.7452 23.2271 83.7057 23.2481C83.6664 23.2691 83.6269 23.2972 83.5874 23.333C83.5481 23.3689 83.5086 23.4154 83.4692 23.4714L82.6333 24.6333C82.601 24.6895 82.5571 24.7332 82.5016 24.7657C82.446 24.7981 82.3807 24.8147 82.3054 24.8147H81.9129L82.9102 23.44C83.0176 23.2857 83.1439 23.1762 83.2891 23.1114C83.135 23.0832 83.0007 23.0395 82.8859 22.9799C82.7713 22.9203 82.6762 22.8477 82.6001 22.7626C82.5239 22.6777 82.4666 22.5813 82.4291 22.4727C82.3914 22.364 82.3726 22.2465 82.3726 22.1204C82.3726 21.9592 82.4031 21.8129 82.4632 21.6814C82.5231 21.55 82.6109 21.4369 82.7264 21.3433C82.842 21.2495 82.9835 21.1767 83.1512 21.1249C83.3188 21.0733 83.5095 21.0479 83.7246 21.0479H85.0066V24.8147ZM89.8178 24.4152V21.45H88.5438C88.5224 21.8793 88.4919 22.2562 88.4525 22.5803C88.413 22.9046 88.3665 23.1858 88.3127 23.4242C88.2589 23.6626 88.1988 23.8614 88.1326 24.0217C88.0663 24.1821 87.9946 24.3135 87.9176 24.4152H89.8178ZM90.9711 24.4152V25.5796C90.9711 25.6252 90.9559 25.662 90.9253 25.6901C90.8949 25.7181 90.8546 25.7322 90.8044 25.7322H90.4954V24.8147H87.3907V25.5796C87.3907 25.6252 87.3755 25.662 87.3443 25.6901C87.3128 25.7181 87.2725 25.7322 87.2241 25.7322H86.9122V24.4152H87.3048C87.3603 24.3888 87.4159 24.346 87.4714 24.2872C87.527 24.2286 87.5808 24.1444 87.6318 24.0348C87.6828 23.9254 87.7303 23.7878 87.7751 23.6214C87.82 23.4549 87.8611 23.2507 87.8978 23.0098C87.9345 22.7688 87.966 22.4876 87.9929 22.165C88.0197 21.8427 88.0404 21.4702 88.0547 21.0479H90.3422V24.4152H90.9711ZM94.5772 24.8147H94.0558V21.45H92.7817C92.7566 21.9337 92.7235 22.3534 92.6813 22.7091C92.6392 23.065 92.5882 23.3689 92.5281 23.6214C92.4682 23.8737 92.4001 24.0787 92.3238 24.2373C92.2477 24.3958 92.1644 24.5212 92.0739 24.6123C91.9834 24.7035 91.8857 24.7657 91.7818 24.799C91.6779 24.8323 91.5677 24.8489 91.4513 24.8489C91.3545 24.8489 91.2801 24.8402 91.2282 24.8235C91.1762 24.8069 91.1502 24.7823 91.1502 24.749V24.4257H91.3383C91.4101 24.4257 91.4808 24.4117 91.5507 24.3845C91.6206 24.3574 91.6878 24.303 91.7523 24.2207C91.8168 24.1383 91.8777 24.0208 91.935 23.8685C91.9923 23.7159 92.0444 23.5145 92.091 23.2638C92.1375 23.0132 92.1778 22.7066 92.2119 22.3447C92.246 21.9829 92.272 21.5508 92.2898 21.0479H94.5772V24.8147ZM97.7022 22.7906V21.4527H96.9388C96.7901 21.4527 96.6628 21.4684 96.5571 21.5C96.4514 21.5315 96.3644 21.5762 96.2965 21.6349C96.2283 21.6936 96.1791 21.7637 96.1476 21.8452C96.1163 21.9267 96.1002 22.0179 96.1002 22.1177C96.1002 22.2229 96.1163 22.3167 96.1476 22.3999C96.1791 22.4831 96.2283 22.5542 96.2954 22.6119C96.3626 22.6698 96.4496 22.7135 96.5562 22.7443C96.6628 22.7749 96.7901 22.7906 96.9388 22.7906H97.7022ZM98.2208 24.8147H97.7022V23.1929H97.178C97.1296 23.1929 97.0848 23.1965 97.0427 23.2042C97.0006 23.2121 96.9594 23.2271 96.9199 23.2481C96.8806 23.2691 96.8411 23.2972 96.8017 23.333C96.7623 23.3689 96.7229 23.4154 96.6834 23.4714L95.8475 24.6333C95.8152 24.6895 95.7713 24.7332 95.7158 24.7657C95.6602 24.7981 95.5949 24.8147 95.5196 24.8147H95.1272L96.1244 23.44C96.2318 23.2857 96.3582 23.1762 96.5033 23.1114C96.3492 23.0832 96.2149 23.0395 96.1002 22.9799C95.9855 22.9203 95.8905 22.8477 95.8143 22.7626C95.7382 22.6777 95.6809 22.5813 95.6433 22.4727C95.6056 22.364 95.5868 22.2465 95.5868 22.1204C95.5868 21.9592 95.6173 21.8129 95.6774 21.6814C95.7373 21.55 95.8252 21.4369 95.9407 21.3433C96.0563 21.2495 96.1978 21.1767 96.3655 21.1249C96.533 21.0733 96.7238 21.0479 96.9388 21.0479H98.2208V24.8147ZM105.626 24.8147H105.279C105.204 24.8147 105.138 24.7981 105.083 24.7657C105.027 24.7332 104.983 24.6895 104.949 24.6333L103.973 23.298C103.925 23.2244 103.87 23.1709 103.808 23.1386C103.746 23.1061 103.667 23.0903 103.572 23.0903H103.126V24.8147H102.634V23.0903H102.191C102.094 23.0903 102.015 23.1061 101.953 23.1386C101.892 23.1709 101.836 23.2244 101.788 23.298L100.812 24.6333C100.78 24.6895 100.736 24.7332 100.68 24.7657C100.625 24.7981 100.559 24.8147 100.484 24.8147H100.135L101.28 23.1824C101.337 23.0913 101.4 23.0185 101.467 22.9642C101.534 22.9098 101.611 22.8696 101.699 22.8432C101.622 22.8188 101.556 22.7827 101.503 22.7354C101.449 22.6881 101.397 22.6276 101.347 22.5542L100.226 21.0479H100.632C100.687 21.0479 100.738 21.061 100.784 21.0882C100.83 21.1154 100.867 21.1531 100.895 21.2004L101.86 22.5068C101.916 22.5839 101.975 22.6346 102.037 22.6601C102.099 22.6855 102.17 22.6987 102.253 22.6987H102.634V21.0479H103.126V22.6987H103.511C103.591 22.6987 103.662 22.6855 103.723 22.6601C103.784 22.6346 103.843 22.5839 103.9 22.5068L104.865 21.2004C104.894 21.1531 104.931 21.1154 104.978 21.0882C105.025 21.061 105.075 21.0479 105.129 21.0479H105.537L104.414 22.5542C104.363 22.6276 104.311 22.6881 104.258 22.7354C104.204 22.7827 104.139 22.8188 104.064 22.8432C104.15 22.8712 104.227 22.9116 104.295 22.9651C104.363 23.0185 104.426 23.0913 104.484 23.1824L105.626 24.8147ZM109.353 21.0479V24.8147H108.831V22.1388C108.831 22.0634 108.833 21.9846 108.837 21.9031C108.84 21.8216 108.848 21.7357 108.861 21.6446C108.83 21.7234 108.798 21.797 108.764 21.8654C108.73 21.9337 108.695 21.9933 108.659 22.0442L106.853 24.6543C106.828 24.6946 106.796 24.7315 106.756 24.7648C106.717 24.7981 106.671 24.8147 106.619 24.8147H106.232V21.0479H106.754V23.7265C106.754 23.8018 106.752 23.8799 106.748 23.9614C106.745 24.0427 106.737 24.1304 106.724 24.2233C106.755 24.1427 106.788 24.0682 106.823 23.9998C106.858 23.9315 106.892 23.871 106.926 23.8185L108.732 21.2083C108.757 21.1679 108.789 21.1311 108.829 21.0978C108.868 21.0646 108.914 21.0479 108.966 21.0479H109.353H109.353ZM110.182 21.4002C110.328 21.2739 110.496 21.1775 110.688 21.1109C110.879 21.0444 111.097 21.0111 111.341 21.0111C111.54 21.0111 111.719 21.0347 111.877 21.082C112.036 21.1294 112.171 21.196 112.282 21.2819C112.393 21.3677 112.479 21.4693 112.539 21.5867C112.599 21.7042 112.628 21.8331 112.628 21.9731C112.628 22.1624 112.581 22.3288 112.485 22.4727C112.389 22.6163 112.254 22.7276 112.08 22.8065C112.179 22.8468 112.268 22.8958 112.349 22.9545C112.429 23.0132 112.499 23.0798 112.557 23.1535C112.616 23.2271 112.661 23.3076 112.692 23.3952C112.723 23.4829 112.738 23.5749 112.738 23.6713C112.738 23.836 112.707 23.9902 112.644 24.1339C112.582 24.2776 112.491 24.402 112.372 24.5081C112.253 24.614 112.106 24.6982 111.932 24.7596C111.758 24.8209 111.56 24.8515 111.338 24.8515C111.062 24.8515 110.814 24.8069 110.594 24.7184C110.373 24.6299 110.184 24.5106 110.026 24.3599L110.177 24.1182C110.191 24.0989 110.209 24.0822 110.231 24.069C110.252 24.0559 110.276 24.0498 110.301 24.0498C110.338 24.0498 110.383 24.069 110.435 24.1085C110.487 24.1479 110.553 24.1917 110.634 24.239C110.715 24.2863 110.813 24.3294 110.929 24.3687C111.044 24.4081 111.185 24.4283 111.352 24.4283C111.493 24.4283 111.62 24.4117 111.732 24.3784C111.844 24.3451 111.938 24.2969 112.015 24.2339C112.091 24.1707 112.149 24.0936 112.189 24.0025C112.23 23.9113 112.249 23.8088 112.249 23.6949C112.249 23.5968 112.23 23.5066 112.192 23.4242C112.153 23.3417 112.097 23.2709 112.023 23.2121C111.95 23.1535 111.86 23.1079 111.755 23.0754C111.649 23.043 111.53 23.0272 111.397 23.0272H110.87V22.6093H111.376C111.485 22.6093 111.587 22.5962 111.681 22.5699C111.775 22.5436 111.856 22.505 111.923 22.4542C111.99 22.4033 112.043 22.3411 112.082 22.2675C112.12 22.194 112.139 22.1098 112.139 22.0152C112.139 21.9294 112.121 21.8505 112.085 21.7787C112.049 21.7068 111.998 21.6446 111.929 21.5929C111.861 21.5412 111.778 21.5018 111.679 21.4738C111.581 21.4457 111.469 21.4318 111.344 21.4318C111.198 21.4318 111.075 21.4466 110.973 21.4764C110.87 21.5062 110.784 21.5385 110.715 21.5746C110.645 21.6104 110.588 21.6438 110.544 21.6735C110.5 21.7034 110.462 21.7182 110.43 21.7182C110.401 21.7182 110.378 21.7121 110.36 21.6998C110.342 21.6875 110.325 21.6673 110.309 21.6393L110.182 21.4002ZM116.688 21.0479V24.8147H116.167V23.1009H114.089V24.8147H113.568V21.0479H114.089V22.7276H116.167V21.0479H116.688ZM120.862 21.0479V24.8147H120.34V22.1388C120.34 22.0634 120.342 21.9846 120.346 21.9031C120.349 21.8216 120.357 21.7357 120.37 21.6446C120.339 21.7234 120.307 21.797 120.273 21.8654C120.239 21.9337 120.204 21.9933 120.168 22.0442L118.362 24.6543C118.337 24.6946 118.305 24.7315 118.265 24.7648C118.226 24.7981 118.18 24.8147 118.128 24.8147H117.741V21.0479H118.263V23.7265C118.263 23.8018 118.261 23.8799 118.257 23.9614C118.254 24.0427 118.245 24.1304 118.233 24.2233C118.263 24.1427 118.297 24.0682 118.332 23.9998C118.367 23.9315 118.401 23.871 118.435 23.8185L120.241 21.2083C120.266 21.1679 120.298 21.1311 120.338 21.0978C120.377 21.0646 120.423 21.0479 120.475 21.0479H120.862ZM126.342 21.0479V24.8147H125.821V22.1388C125.821 22.0634 125.822 21.9846 125.826 21.9031C125.83 21.8216 125.838 21.7357 125.85 21.6446C125.82 21.7234 125.788 21.797 125.754 21.8654C125.719 21.9337 125.685 21.9933 125.649 22.0442L123.842 24.6543C123.817 24.6946 123.785 24.7315 123.746 24.7648C123.706 24.7981 123.661 24.8147 123.609 24.8147H123.222V21.0479H123.743V23.7265C123.743 23.8018 123.741 23.8799 123.738 23.9614C123.734 24.0427 123.726 24.1304 123.713 24.2233C123.744 24.1427 123.777 24.0682 123.812 23.9998C123.847 23.9315 123.881 23.871 123.915 23.8185L125.721 21.2083C125.746 21.1679 125.779 21.1311 125.818 21.0978C125.857 21.0646 125.903 21.0479 125.955 21.0479H126.342ZM129.968 24.4098C130.117 24.4098 130.245 24.3933 130.351 24.3599C130.458 24.3267 130.545 24.2802 130.612 24.2216C130.679 24.1628 130.729 24.0919 130.76 24.0085C130.791 23.9254 130.807 23.8343 130.807 23.7343C130.807 23.6293 130.791 23.5354 130.76 23.454C130.729 23.3725 130.679 23.3033 130.612 23.2463C130.545 23.1894 130.458 23.1465 130.352 23.1174C130.247 23.0886 130.12 23.0746 129.971 23.0746H129.221V24.4098H129.968ZM129.97 22.6698C130.205 22.6698 130.408 22.6942 130.578 22.7443C130.748 22.7942 130.889 22.8643 130.999 22.9545C131.109 23.0448 131.191 23.1526 131.244 23.277C131.296 23.4014 131.323 23.5372 131.323 23.6844C131.323 23.8578 131.293 24.0139 131.233 24.1532C131.173 24.2925 131.085 24.4117 130.969 24.5098C130.854 24.608 130.711 24.6834 130.543 24.7358C130.375 24.7884 130.183 24.8147 129.968 24.8147H128.702V21.0479H131.191V21.45H129.221V22.6698H129.97ZM135.224 21.0479V24.8147H134.703V22.1388C134.703 22.0634 134.704 21.9846 134.708 21.9031C134.712 21.8216 134.72 21.7357 134.732 21.6446C134.702 21.7234 134.67 21.797 134.636 21.8654C134.601 21.9337 134.567 21.9933 134.531 22.0442L132.724 24.6543C132.699 24.6946 132.667 24.7315 132.628 24.7648C132.588 24.7981 132.543 24.8147 132.491 24.8147H132.104V21.0479H132.625V23.7265C132.625 23.8018 132.623 23.8799 132.62 23.9614C132.616 24.0427 132.608 24.1304 132.595 24.2233C132.626 24.1427 132.659 24.0682 132.694 23.9998C132.729 23.9315 132.763 23.871 132.797 23.8185L134.603 21.2083C134.628 21.1679 134.661 21.1311 134.7 21.0978C134.739 21.0646 134.785 21.0479 134.837 21.0479H135.224ZM136.054 21.4002C136.199 21.2739 136.367 21.1775 136.559 21.1109C136.751 21.0444 136.968 21.0111 137.212 21.0111C137.411 21.0111 137.59 21.0347 137.749 21.082C137.907 21.1294 138.042 21.196 138.153 21.2819C138.264 21.3677 138.35 21.4693 138.41 21.5867C138.47 21.7042 138.499 21.8331 138.499 21.9731C138.499 22.1624 138.452 22.3288 138.356 22.4727C138.26 22.6163 138.125 22.7276 137.951 22.8065C138.05 22.8468 138.139 22.8958 138.22 22.9545C138.301 23.0132 138.371 23.0798 138.429 23.1535C138.487 23.2271 138.532 23.3076 138.563 23.3952C138.594 23.4829 138.61 23.5749 138.61 23.6713C138.61 23.836 138.578 23.9902 138.516 24.1339C138.453 24.2776 138.362 24.402 138.243 24.5081C138.124 24.614 137.977 24.6982 137.803 24.7596C137.629 24.8209 137.432 24.8515 137.209 24.8515C136.933 24.8515 136.685 24.8069 136.465 24.7184C136.244 24.6299 136.055 24.5106 135.898 24.3599L136.048 24.1182C136.063 24.0989 136.081 24.0822 136.102 24.069C136.124 24.0559 136.147 24.0498 136.172 24.0498C136.209 24.0498 136.254 24.069 136.306 24.1085C136.358 24.1479 136.424 24.1917 136.505 24.239C136.586 24.2863 136.684 24.3294 136.8 24.3687C136.916 24.4081 137.056 24.4283 137.223 24.4283C137.364 24.4283 137.492 24.4117 137.604 24.3784C137.716 24.3451 137.81 24.2969 137.886 24.2339C137.962 24.1707 138.02 24.0936 138.06 24.0025C138.101 23.9113 138.121 23.8088 138.121 23.6949C138.121 23.5968 138.102 23.5066 138.063 23.4242C138.025 23.3417 137.968 23.2709 137.895 23.2121C137.821 23.1535 137.732 23.1079 137.626 23.0754C137.52 23.043 137.401 23.0272 137.268 23.0272H136.742V22.6093H137.247C137.356 22.6093 137.458 22.5962 137.553 22.5699C137.647 22.5436 137.727 22.505 137.794 22.4542C137.862 22.4033 137.914 22.3411 137.953 22.2675C137.991 22.194 138.01 22.1098 138.01 22.0152C138.01 21.9294 137.992 21.8505 137.956 21.7787C137.921 21.7068 137.869 21.6446 137.801 21.5929C137.733 21.5412 137.649 21.5018 137.551 21.4738C137.452 21.4457 137.34 21.4318 137.215 21.4318C137.07 21.4318 136.946 21.4466 136.844 21.4764C136.742 21.5062 136.656 21.5385 136.586 21.5746C136.516 21.6104 136.459 21.6438 136.416 21.6735C136.372 21.7034 136.333 21.7182 136.301 21.7182C136.272 21.7182 136.249 21.7121 136.231 21.6998C136.213 21.6875 136.196 21.6673 136.18 21.6393L136.054 21.4002ZM142.56 21.0479V24.8147H142.038V23.1009H139.961V24.8147H139.439V21.0479H139.961V22.7276H142.038V21.0479H142.56ZM145.988 24.3994L145.986 24.8147H143.613V21.0479H145.986V21.4632H144.134V22.7144H145.634V23.114H144.134V24.3994H145.989H145.988ZM149.406 24.0367C149.435 24.0367 149.46 24.048 149.481 24.0709L149.688 24.2891C149.531 24.4677 149.34 24.607 149.115 24.7069C148.89 24.8069 148.618 24.8568 148.299 24.8568C148.023 24.8568 147.772 24.8095 147.546 24.7157C147.321 24.622 147.128 24.4905 146.968 24.3213C146.809 24.1524 146.685 23.95 146.598 23.7134C146.51 23.4767 146.466 23.2165 146.466 22.9326C146.466 22.6488 146.511 22.3884 146.603 22.1519C146.694 21.9154 146.823 21.7121 146.989 21.5421C147.155 21.3721 147.353 21.2397 147.584 21.1461C147.815 21.0523 148.07 21.0059 148.35 21.0059C148.624 21.0059 148.866 21.0487 149.076 21.1347C149.285 21.2206 149.47 21.3371 149.629 21.4842L149.457 21.7182C149.447 21.7357 149.433 21.7497 149.416 21.7611C149.399 21.7726 149.376 21.7787 149.347 21.7787C149.315 21.7787 149.275 21.7611 149.229 21.727C149.182 21.6928 149.121 21.655 149.046 21.613C148.971 21.571 148.877 21.5324 148.764 21.4982C148.651 21.4641 148.512 21.4475 148.347 21.4475C148.148 21.4475 147.967 21.4808 147.802 21.5482C147.637 21.6157 147.495 21.7138 147.376 21.8417C147.257 21.9697 147.164 22.1257 147.097 22.3097C147.031 22.4937 146.998 22.7012 146.998 22.9326C146.998 23.1675 147.033 23.3769 147.102 23.5609C147.171 23.7449 147.265 23.8999 147.384 24.027C147.503 24.1541 147.644 24.2513 147.806 24.3179C147.968 24.3845 148.143 24.4179 148.331 24.4179C148.446 24.4179 148.55 24.4108 148.642 24.3977C148.734 24.3845 148.819 24.3644 148.897 24.3364C148.975 24.3083 149.048 24.2723 149.115 24.2294C149.182 24.1865 149.249 24.1356 149.315 24.076C149.345 24.0498 149.376 24.0367 149.406 24.0367ZM152.402 23.4163L151.797 21.8838C151.779 21.8382 151.761 21.7847 151.741 21.7244C151.721 21.6639 151.702 21.5999 151.684 21.5315C151.647 21.6735 151.608 21.7919 151.569 21.8864L150.964 23.4163H152.402ZM153.488 24.8147H153.085C153.038 24.8147 153.001 24.8033 152.972 24.7805C152.943 24.7578 152.922 24.7288 152.907 24.6938L152.547 23.7842H150.819L150.459 24.6938C150.448 24.7254 150.427 24.7534 150.397 24.778C150.366 24.8024 150.328 24.8147 150.281 24.8147H149.881L151.421 21.0479H151.948L153.488 24.8147Z" fill="#979797"/>
<path fill-rule="evenodd" clip-rule="evenodd" d="M34.1085 18.0058C33.8053 17.88 33.5192 17.7092 33.2633 17.5303L33.1574 17.4559L33.6846 16.6763L33.8244 16.7725C34.0871 16.9533 34.5767 17.2909 35.0787 17.2909C35.4542 17.2909 35.7164 17.1317 35.9314 16.8486C36.1537 16.5543 36.2709 16.2704 36.4657 15.7506L31.8279 6.44153H32.9173L36.3951 13.43C36.6088 13.8585 36.8213 14.3513 36.9475 14.6526C37.0512 14.3533 37.2217 13.868 37.3811 13.4429L40.0105 6.44153H41.0703L37.2228 16.376C37.0175 16.8986 36.7547 17.354 36.4102 17.6814C36.0566 18.0167 35.6209 18.2172 35.0787 18.2172C34.7455 18.2172 34.4175 18.1344 34.1085 18.0058ZM44.1995 18.0064V6.44141H50.3133V7.36741H45.1753V18.0064H44.1995ZM68.6892 18.0064H67.8452V6.44141H68.8208V11.3126H70.7722L73.8949 6.44141H75.0675L71.6022 11.76L75.4893 18.0064H74.3173L70.7704 12.2387H68.8208V18.0064H68.6892ZM52.2233 18.0064C52.5295 14.1515 52.8377 10.2959 53.1488 6.44141H54.0497L57.4665 13.8105C57.6346 14.1687 57.8162 14.5992 57.9273 14.8678C58.0381 14.599 58.2195 14.1687 58.388 13.8105L61.8047 6.44141H62.7057L63.6312 18.0064H62.6545L61.9563 9.33549C61.9333 9.07431 61.9206 8.72673 61.914 8.42681C61.7989 8.73722 61.655 9.10692 61.5264 9.38021L58.3751 16.0687H57.4797C56.8241 14.6709 55.0426 10.3572 54.3435 9.37828C54.2178 9.10164 54.0638 8.70681 53.9411 8.38034C53.9345 8.695 53.922 9.06513 53.8981 9.33549L53.1999 18.0064H52.2233ZM77.8426 11.5425H80.4076V14.1075H77.8426V11.5425ZM85.3848 18.0039H87.1258V7.9692H91.4431V6.44141H81.0673V7.9692H85.3848V18.0039ZM91.078 13.509C91.078 16.174 93.0324 18.2172 95.8574 18.2172C97.101 18.2172 98.4692 17.7375 99.3395 16.938L98.6111 15.6765C97.9005 16.3161 96.9232 16.7248 95.9638 16.7248C94.3474 16.7248 92.9616 15.6765 92.8726 13.7399H99.4108C99.4461 13.4912 99.4818 13.2424 99.4818 13.0115C99.4818 10.7018 98.1315 8.80082 95.5908 8.80082C93.0324 8.80082 91.078 10.6486 91.078 13.509ZM92.9259 12.4963C93.1744 11.0038 94.2229 10.1334 95.5553 10.1334C96.7279 10.1334 97.6873 10.9506 97.7406 12.4963H92.9259ZM100.893 18.0928C103.541 17.9505 104.571 15.8542 104.571 11.7856V10.4352H107.218V18.0039H108.942V9.01416H102.919V11.7856C102.919 15.0369 102.208 16.3515 100.893 16.547V18.0928ZM111.331 13.509C111.331 16.174 113.285 18.2172 116.11 18.2172C117.353 18.2172 118.721 17.7375 119.592 16.938L118.864 15.6765C118.153 16.3161 117.176 16.7248 116.216 16.7248C114.6 16.7248 113.214 15.6765 113.125 13.7399H119.663C119.699 13.4912 119.734 13.2424 119.734 13.0115C119.734 10.7018 118.384 8.80082 115.843 8.80082C113.285 8.80082 111.331 10.6486 111.331 13.509ZM113.178 12.4963C113.427 11.0038 114.475 10.1334 115.808 10.1334C116.98 10.1334 117.94 10.9506 117.993 12.4963H113.178ZM122.123 18.0039H123.846V14.1131H125.143L127.826 18.0039H129.869L126.511 13.3314V13.2958L129.514 9.01416H127.559L125.108 12.6384H123.846V9.01416H122.123V18.0039ZM130.748 13.4912C130.748 16.2273 132.916 18.2172 135.598 18.2172C138.263 18.2172 140.431 16.2273 140.431 13.4912C140.431 10.773 138.263 8.80082 135.58 8.80082C132.916 8.80082 130.748 10.773 130.748 13.4912ZM132.507 13.4912C132.507 11.6257 133.893 10.2932 135.598 10.2932C137.286 10.2932 138.69 11.6257 138.69 13.4912C138.69 15.3744 137.286 16.7248 135.598 16.7248C133.893 16.7248 132.507 15.3744 132.507 13.4912ZM142.446 18.0039H144.117L144.507 12.6562C144.543 12.123 144.49 11.1105 144.49 11.1105H144.525C144.525 11.1105 144.809 11.7856 145.093 12.443L147.226 16.9202H148.7L150.832 12.4251C151.17 11.7324 151.401 11.1105 151.401 11.1105H151.436C151.436 11.1105 151.401 12.123 151.418 12.6562L151.809 18.0039H153.479L152.698 9.01416H150.815L148.469 14.0953C148.238 14.6461 147.972 15.3035 147.972 15.3035H147.936C147.936 15.3035 147.688 14.6281 147.439 14.0953L145.147 9.01416H143.228L142.446 18.0039Z" fill="#EEEDED"/>
</svg>
