<svg width="20" height="20" viewBox="0 0 20 20" fill="none" xmlns="http://www.w3.org/2000/svg">
<path d="M12.6705 14.0772L18.5933 20L20 18.5933L14.0772 12.6705C16.7424 9.26488 16.1502 4.30452 12.6705 1.63925C9.26488 -1.02602 4.30452 -0.359706 1.63925 3.04592C-1.02602 6.45154 -0.359706 11.4119 3.04592 14.0772C5.85926 16.2982 9.85717 16.2982 12.6705 14.0772ZM13.781 7.85821C13.781 11.1158 11.1158 13.781 7.85821 13.781C4.60066 13.781 1.93539 11.1158 1.93539 7.85821C1.93539 4.60066 4.60066 1.93539 7.85821 1.93539C11.1158 2.00942 13.781 4.60066 13.781 7.85821Z" fill="url(#paint0_linear_651_4362)"/>
<defs>
<linearGradient id="paint0_linear_651_4362" x1="2.32258" y1="1.25001" x2="18.8979" y2="2.70657" gradientUnits="userSpaceOnUse">
<stop stop-color="#DD4C05"/>
<stop offset="1" stop-color="#D13730"/>
</linearGradient>
</defs>
</svg>
