<svg width="178" height="178" viewBox="0 0 178 178" fill="none" xmlns="http://www.w3.org/2000/svg">
<path fill-rule="evenodd" clip-rule="evenodd" d="M102.137 0H134.836V4.94373H102.137V0ZM145.301 0H178V4.94373H145.301V0ZM102.137 13.3104H134.836V18.2541H102.137V13.3104ZM145.301 13.3104H178V18.2541H145.301V13.3104ZM102.137 26.6245H134.836V31.5682H102.137V26.6245ZM145.301 26.6245H178V31.5682H145.301V26.6245ZM102.137 39.9325H134.836V44.8762H102.137V39.9325ZM145.301 39.9325H178V44.8762H145.301V39.9325ZM145.301 53.2428H178V58.1866H145.301V53.2428ZM102.137 66.5532H134.836V71.4965H102.137V66.5532ZM145.301 66.5532H178V71.4965H145.301V66.5532ZM102.137 79.8631H134.836V84.8067H102.137V79.8631ZM145.301 79.8631H178V84.8067H145.301V79.8631ZM102.137 93.1735H134.836V98.1171H102.137V93.1735ZM145.301 93.1735H178V98.1171H145.301V93.1735ZM102.137 146.416H134.836V151.36H102.137V146.416ZM102.137 106.486H134.836V111.429H102.137V106.486ZM145.301 106.486H178V111.429H145.301V106.486ZM102.137 119.796H134.836V124.739H102.137V119.796ZM145.301 119.796H178V124.739H145.301V119.796ZM102.137 133.106H134.836V138.05H102.137V133.106ZM145.301 133.106H178V138.05H145.301V133.106ZM145.301 146.416H178V151.36H145.301V146.416ZM102.137 159.728H134.836V164.672H102.137V159.728ZM145.301 159.728H178V164.672H145.301V159.728ZM102.137 173.036H134.836V177.98H102.137V173.036ZM45.6016 129.019H71.7289V133.962H45.6016V129.019ZM11.1117 129.019H37.2397V133.962H11.1117V129.019ZM45.6016 117.507H71.7289V122.45H45.6016V117.507ZM11.1117 117.507H37.2397V122.45H11.1117V117.507ZM45.6016 105.995H71.7289V110.939H45.6016V105.995ZM11.1117 105.995H37.2397V110.939H11.1117V105.995ZM11.1117 140.53H37.2397V145.474H11.1117V140.53ZM57.1335 37.9829C57.0662 37.5081 57.0305 37.0256 57.0305 36.5333C57.0305 33.6998 58.1818 31.1289 60.0387 29.2721C60.3431 28.9774 60.6558 28.7007 60.9858 28.4438L60.5507 28.4285C59.0596 28.4285 57.7088 29.0317 56.7377 29.9985C55.7689 30.9775 55.1656 32.3263 55.1656 33.811C55.1656 34.8554 55.4584 35.844 55.9765 36.6747C56.2888 37.1647 56.6785 37.6097 57.1335 37.9836V37.9829ZM102.137 53.2428H102.187L82.8076 44.997C82.6286 46.8743 81.7833 48.5702 80.5174 49.8398C79.0718 51.2814 77.0921 52.1751 74.9166 52.1751H47.8876C46.6102 52.1751 45.3959 51.8685 44.3239 51.3207L39.9473 49.5251V57.5914H82.8435V82.7245H59.2359L59.2473 94.4984H82.8455V157.334H54.9897V163.778H73.9299V178H8.91324V163.778H27.8558V157.334H0V94.4984H2.4423H55.7746L55.7632 82.7245H0.108977V57.5914H25.3167V43.5275L4.11161 34.8329C2.82813 34.305 1.93996 33.3202 1.37831 32.1298C0.824701 30.9669 0.593423 29.5944 0.593423 28.3547V7.92553C0.593423 5.75455 1.485 3.77512 2.92103 2.33735C4.36853 0.891941 6.35238 0 8.51981 0H35.549C36.9254 0 37.9496 0.445053 38.9586 0.885825L77.5789 16.3595C78.6884 16.7609 79.687 17.4015 80.5078 18.2204C81.9492 19.6658 82.8435 21.6453 82.8435 23.8204V42.3333L108.483 53.2428H134.836V58.1866H102.137V53.2428ZM67.6042 35.8494L72.5 37.9324C72.6197 37.4855 72.6839 37.0168 72.6839 36.5333C72.6839 35.0424 72.0829 33.6917 71.1137 32.7188C70.1349 31.752 68.788 31.1488 67.3008 31.1488C65.8097 31.1488 64.4588 31.752 63.4877 32.7188C62.5185 33.6979 61.9156 35.0462 61.9156 36.5333C61.9156 38.0265 62.5166 39.3751 63.4839 40.34C63.9128 40.759 64.4034 41.1092 64.9433 41.3722L65.3229 41.5262C65.9301 41.7816 66.6007 41.9162 67.3008 41.9162C68.7861 41.9162 70.1349 41.3129 71.1079 40.34C71.1821 40.2658 71.256 40.1906 71.3255 40.1114L66.6393 38.1174L67.6042 35.8494ZM77.016 39.8534L77.9586 40.2548V23.8204C77.9586 22.9859 77.6183 22.2225 77.0746 21.6728C76.5149 21.1192 75.7513 20.779 74.9166 20.779H47.8876C47.0533 20.779 46.2916 21.1193 45.7419 21.6629C45.1882 22.2225 44.848 22.9859 44.848 23.8204V44.2493C44.848 45.0838 45.1883 45.8472 45.7319 46.3969C46.2917 46.9505 47.0533 47.2907 47.8876 47.2907H74.9166C75.7513 47.2907 76.5149 46.9504 77.0647 46.4068C77.6183 45.8472 77.9586 45.0838 77.9586 44.2493V42.9334L75.9383 42.0741C75.5399 42.6922 75.0781 43.2645 74.5608 43.7828C72.7038 45.6495 70.1327 46.8002 67.3008 46.8002C65.6751 46.8002 64.1366 46.4206 62.7678 45.7482L56.0831 43.0493C54.3133 42.1949 52.8617 40.8642 51.8588 39.2662C50.8483 37.6446 50.2805 35.7622 50.2805 33.8102C50.2805 30.9787 51.4317 28.4082 53.2887 26.5511C55.1598 24.6943 57.7249 23.5437 60.5507 23.5437C61.2924 23.5437 62.054 23.6323 62.8133 23.8043C63.547 23.9687 64.257 24.2138 64.9257 24.5261L71.1828 26.9643L71.1637 27.016C72.4453 27.5382 73.6003 28.3111 74.5615 29.2721C76.4185 31.1407 77.5697 33.7074 77.5697 36.5333C77.5697 37.6943 77.3747 38.8113 77.0169 39.8534H77.016ZM35.0623 47.522L30.2013 45.5287V67.4408L35.0623 67.3915V47.522ZM47.8876 15.8946H63.3157C54.9519 12.5469 45.3879 8.13923 37.0126 5.34703C36.4865 5.11766 35.9505 4.88446 35.549 4.88446H8.51981C7.68136 4.88446 6.91789 5.22427 6.37422 5.77017C5.81831 6.32372 5.47802 7.08718 5.47802 7.92553V28.3547C5.47802 28.9675 5.56901 29.5963 5.78465 30.0493C5.85767 30.2057 5.92496 30.3181 5.96281 30.3323L39.963 44.2729V23.8204C39.963 21.6453 40.8568 19.6658 42.2887 18.2299C43.7346 16.7887 45.7163 15.8946 47.8876 15.8946ZM77.9586 62.4754H39.9473V72.2067L25.3164 72.357V62.4754H4.99357V77.8404H77.9586V62.4754ZM32.7385 163.778H50.1028V157.336H32.7385V163.778ZM52.5451 168.662H13.7963V173.116H69.043V168.662H52.5451ZM77.9586 99.3824H4.88273V152.449H77.9586V99.3824Z" fill="#09090A"/>
</svg>
