<svg width="158" height="187" viewBox="0 0 158 187" fill="none" xmlns="http://www.w3.org/2000/svg">
<path fill-rule="evenodd" clip-rule="evenodd" d="M77.5814 1.0896C76.8987 1.68342 75.2442 3.00273 73.9046 4.02174C60.436 14.2666 44.1554 21.1262 27.752 23.4674C22.1599 24.2654 20.8846 24.3349 10.3294 24.4165L0 24.4964L0.000354463 25.0611C0.000709121 25.3716 0.081571 27.515 0.180343 29.824C1.37518 57.7681 7.73047 84.3666 19.2391 109.59C32.6528 138.989 52.5952 165.022 77.6963 185.9L79.0181 187L79.807 186.355C86.6523 180.757 95.4565 172.394 101.764 165.5C115.259 150.748 126.322 134.735 135.206 117.093C145.997 95.6641 152.825 73.6813 156.125 49.7432C157.135 42.4187 158 31.4418 158 25.9568V24.4646H149.325C139.997 24.4646 137.139 24.3318 131.761 23.6487C113.727 21.3575 96.1801 13.8061 81.702 2.10556C80.262 0.941854 79.0252 -0.00551392 78.9534 2.41577e-05C78.8815 0.00556223 78.2641 0.49595 77.5814 1.0896ZM81.5725 8.58136C84.3028 10.638 87.7742 12.953 91.3244 15.0856C103.1 22.1589 117.409 27.1039 131.106 28.8338C136.123 29.4676 138.754 29.6305 146.096 29.7631L152.722 29.8828L152.604 32.0417C151.595 50.3867 148.267 68.3454 142.72 85.3834C137.731 100.706 130.529 116.337 122.309 129.688C111.076 147.93 97.5977 163.91 81.4207 178.163L79.0536 180.249L78.1504 179.488C71.5052 173.888 63.1214 165.548 56.5546 158.004C45.044 144.781 34.6992 129.381 27.2443 114.372C16.5389 92.8191 9.85877 70.8933 6.83602 47.3897C6.35316 43.6352 5.75326 37.2827 5.59029 34.2009C5.53319 33.12 5.44081 31.693 5.38512 31.0299L5.28387 29.824L8.8042 29.8204C28.2643 29.8011 41.232 27.2097 57.0112 20.187C63.2972 17.3894 71.8785 12.2256 77.3154 7.96878C78.6659 6.91136 79.053 6.68913 79.2672 6.84812C79.4141 6.95728 80.4514 7.73725 81.5725 8.58136ZM59.5825 33.3969V36.0783L79.0443 36.0327L98.5062 35.9873V33.3969V30.8066L79.0443 30.7612L59.5825 30.7156V33.3969ZM20.2155 42.5973V45.1877H79.0887H137.962V42.5973V40.0069H79.0887H20.2155V42.5973ZM20.5701 51.887V54.4774H79H137.43V51.887V49.2966H79H20.5701V51.887ZM22.3434 61.1767V63.767H79H135.657V61.1767V58.5863H79H22.3434V61.1767ZM24.4714 70.2877V72.8781H79H133.529V70.2877V67.6973H79H24.4714V70.2877ZM27.1313 79.5774V82.1678H79H130.869V79.5774V76.987H79H27.1313V79.5774ZM30.3232 88.867V91.4574H79H127.677V88.867V86.2767H79H30.3232V88.867ZM34.0471 98.0674V100.747H79H123.953V98.0674V95.3877H79H34.0471V98.0674ZM38.303 107.268V109.858H79H119.697V107.268V104.677H79H38.303V107.268ZM43.0909 116.557V119.148H60.6465H78.202V116.557V113.967H60.6465H43.0909V116.557ZM48.6661 123.309C48.6174 123.438 48.5996 124.624 48.6271 125.945L48.6768 128.348L63.4442 128.394L78.2116 128.44L78.1625 125.804L78.1134 123.167L63.4342 123.122C51.4853 123.085 48.7385 123.119 48.6661 123.309ZM54.9719 134.958V137.549H66.587H78.202V134.958V132.368H66.587H54.9719V134.958ZM62.0651 144.248V146.838H70.1336H78.202V144.248V141.657H70.1336H62.0651V144.248ZM79.6207 153.537V156.128H83.6992H87.7778V153.537V150.947H83.6992H79.6207V153.537Z" fill="url(#paint0_linear_1333_13195)"/>
<defs>
<linearGradient id="paint0_linear_1333_13195" x1="18.3484" y1="11.6876" x2="149.581" y2="21.4313" gradientUnits="userSpaceOnUse">
<stop stop-color="#DD4C05"/>
<stop offset="1" stop-color="#D13730"/>
</linearGradient>
</defs>
</svg>
