<svg width="31" height="24" viewBox="0 0 31 24" fill="none" xmlns="http://www.w3.org/2000/svg">
<path d="M15.4 20.35C16.3 20.35 17.1 21.15 17.1 22.05C17.1 22.95 16.3 23.75 15.4 23.75C14.5 23.75 13.7 22.95 13.7 22.05C13.7 21.15 14.5 20.35 15.4 20.35ZM9.5 16.15C9.7 15.95 10 15.75 10.2 15.55C10.4 15.35 10.7 15.15 10.9 15.05C12.2 14.25 13.8 13.75 15.4 13.75C16.5 13.75 17.6 13.95 18.6 14.35C18.7 14.45 18.9 14.45 19.1 14.55C19.9 14.95 20.7 15.45 21.3 16.15L19.4 18.05C18.9 17.55 18.4 17.25 17.9 16.95C17.8 16.95 17.7 16.85 17.6 16.85C16.9 16.55 16.2 16.45 15.4 16.45C14.3 16.45 13.3 16.75 12.4 17.35C12.2 17.45 12.1 17.55 11.9 17.75C11.7 17.85 11.6 18.05 11.4 18.15L9.5 16.15ZM4.8 11.45C5.1 11.05 5.6 10.65 6 10.25C6.4 9.95 6.9 9.55 7.3 9.25C9.7 7.75 12.5 6.95 15.3 6.95C17.3 6.95 19.3 7.35 21.1 8.05C21.4 8.25 21.7 8.35 22 8.55C23.5 9.25 24.8 10.25 26 11.45L24.1 13.35C23.1 12.35 22 11.55 20.8 10.95C20.6 10.85 20.4 10.75 20.1 10.65C18.6 10.05 17 9.75 15.4 9.75C13 9.75 10.7 10.45 8.8 11.65C8.4 11.85 8.1 12.15 7.7 12.45C7.4 12.75 7 13.05 6.7 13.35L4.8 11.45ZM0 6.65C0.6 6.05 1.2 5.55 1.8 5.05C2.4 4.55 3.1 4.05 3.8 3.65C7.2 1.45 11.3 0.25 15.4 0.25C18.3 0.25 21.1 0.85 23.7 1.95C24.2 2.05 24.6 2.25 25 2.45C27.1 3.55 29.1 4.85 30.8 6.55L28.9 8.45C27.4 6.95 25.7 5.75 23.8 4.85C23.5 4.65 23.1 4.55 22.7 4.35C20.4 3.35 17.9 2.85 15.4 2.85C11.8 2.85 8.2 3.85 5.2 5.85C4.6 6.25 4 6.65 3.5 7.15C2.9 7.55 2.4 8.05 1.9 8.55L0 6.65Z" fill="url(#paint0_linear_472_3309)"/>
<defs>
<linearGradient id="paint0_linear_472_3309" x1="3.57677" y1="1.71877" x2="28.9631" y2="4.64258" gradientUnits="userSpaceOnUse">
<stop stop-color="#DD4C05"/>
<stop offset="1" stop-color="#D13730"/>
</linearGradient>
</defs>
</svg>
