<svg width="21" height="17" viewBox="0 0 21 17" fill="none" xmlns="http://www.w3.org/2000/svg">
<path d="M10.5 14.2858C11.1136 14.2858 11.6591 14.8305 11.6591 15.4433C11.6591 16.056 11.1136 16.6007 10.5 16.6007C9.88636 16.6007 9.34091 16.056 9.34091 15.4433C9.34091 14.8305 9.88636 14.2858 10.5 14.2858ZM6.47727 11.4262C6.61364 11.2901 6.81818 11.1539 6.95455 11.0177C7.09091 10.8816 7.29545 10.7454 7.43182 10.6773C8.31818 10.1326 9.40909 9.7922 10.5 9.7922C11.25 9.7922 12 9.92837 12.6818 10.2007C12.75 10.2688 12.8864 10.2688 13.0227 10.3369C13.5682 10.6092 14.1136 10.9496 14.5227 11.4262L13.2273 12.7199C12.8864 12.3794 12.5455 12.1752 12.2045 11.9709C12.1364 11.9709 12.0682 11.9028 12 11.9028C11.5227 11.6986 11.0455 11.6305 10.5 11.6305C9.75 11.6305 9.06818 11.8348 8.45455 12.2433C8.31818 12.3113 8.25 12.3794 8.11364 12.5156C7.97727 12.5837 7.90909 12.7199 7.77273 12.7879L6.47727 11.4262ZM3.27273 8.22624C3.47727 7.9539 3.81818 7.68156 4.09091 7.40922C4.36364 7.20496 4.70455 6.93262 4.97727 6.72837C6.61364 5.70709 8.52273 5.16241 10.4318 5.16241C11.7955 5.16241 13.1591 5.43475 14.3864 5.91135C14.5909 6.04752 14.7955 6.1156 15 6.25177C16.0227 6.72837 16.9091 7.40922 17.7273 8.22624L16.4318 9.51986C15.75 8.83901 15 8.29433 14.1818 7.88581C14.0455 7.81773 13.9091 7.74964 13.7045 7.68156C12.6818 7.27305 11.5909 7.06879 10.5 7.06879C8.86364 7.06879 7.29545 7.54539 6 8.36241C5.72727 8.49858 5.52273 8.70284 5.25 8.90709C5.04545 9.11135 4.77273 9.3156 4.56818 9.51986L3.27273 8.22624ZM0 4.95816C0.409091 4.54964 0.818182 4.20922 1.22727 3.86879C1.63636 3.52837 2.11364 3.18794 2.59091 2.9156C4.90909 1.41773 7.70455 0.600708 10.5 0.600708C12.4773 0.600708 14.3864 1.00922 16.1591 1.75815C16.5 1.82624 16.7727 1.96241 17.0455 2.09858C18.4773 2.84752 19.8409 3.73262 21 4.89007L19.7045 6.18369C18.6818 5.16241 17.5227 4.34539 16.2273 3.73262C16.0227 3.59645 15.75 3.52837 15.4773 3.3922C13.9091 2.71135 12.2045 2.37092 10.5 2.37092C8.04545 2.37092 5.59091 3.05177 3.54545 4.41347C3.13636 4.68581 2.72727 4.95816 2.38636 5.29858C1.97727 5.57092 1.63636 5.91135 1.29545 6.25177L0 4.95816Z" fill="url(#paint0_linear_450_1629)"/>
<defs>
<linearGradient id="paint0_linear_450_1629" x1="2.43871" y1="1.60072" x2="19.7469" y2="3.59698" gradientUnits="userSpaceOnUse">
<stop stop-color="#DD4C05"/>
<stop offset="1" stop-color="#D13730"/>
</linearGradient>
</defs>
</svg>
