<svg width="20" height="22" viewBox="0 0 20 22" fill="none" xmlns="http://www.w3.org/2000/svg">
<path d="M11.0526 13.7827L12.4812 10.6202L20 13.2962V21.6485H16.015C7.14286 21.6485 0 13.9449 0 4.37627V0.0784912H7.74436L10.2256 8.1875L7.29323 9.72821C8.19549 11.4311 9.47368 12.8096 11.0526 13.7827ZM6.2406 2.26792H1.95489V4.45736C1.95489 12.8096 8.19549 19.5401 15.9398 19.5401H17.9699V14.918L13.4586 13.2962L11.9549 16.702L11.0526 16.2154C8.42105 14.8369 6.31579 12.5664 5.03759 9.72821L4.58647 8.75513L7.74436 7.05224L6.2406 2.26792Z" fill="url(#paint0_linear_450_1614)"/>
<defs>
<linearGradient id="paint0_linear_450_1614" x1="2.32258" y1="1.42663" x2="18.9157" y2="2.77863" gradientUnits="userSpaceOnUse">
<stop stop-color="#DD4C05"/>
<stop offset="1" stop-color="#D13730"/>
</linearGradient>
</defs>
</svg>
