<svg width="20" height="22" viewBox="0 0 20 22" fill="none" xmlns="http://www.w3.org/2000/svg">
<path d="M20 0.140015H0C0 7.36009 0 14.5802 0 21.71H20C20 14.5802 20 7.36009 20 0.140015ZM2.25941 14.5802V12.1434H4.51883V14.5802H2.25941ZM2.25941 16.9267H4.51883V19.3635H2.25941V16.9267ZM17.8243 14.5802H15.5649V12.1434H17.8243V14.5802ZM17.8243 16.9267V19.3635H15.5649V16.9267H17.8243ZM2.25941 7.36009H4.51883V9.79686H2.25941V7.36009ZM2.25941 4.92331V2.57679H4.51883V5.01356H2.25941V4.92331ZM17.8243 7.36009V9.79686H15.5649V7.36009H17.8243ZM17.8243 4.92331H15.5649V2.57679H17.8243V4.92331ZM13.3891 9.70661H6.69456V2.48654H13.3891V9.70661ZM13.3891 12.1434V19.3635H6.69456V12.1434H13.3891Z" fill="url(#paint0_linear_450_1610)"/>
<defs>
<linearGradient id="paint0_linear_450_1610" x1="2.32258" y1="1.48815" x2="18.9157" y2="2.84015" gradientUnits="userSpaceOnUse">
<stop stop-color="#DD4C05"/>
<stop offset="1" stop-color="#D13730"/>
</linearGradient>
</defs>
</svg>
