<svg width="20" height="21" viewBox="0 0 20 21" fill="none" xmlns="http://www.w3.org/2000/svg">
<path d="M10 20.7748C4.51128 20.7748 0 16.2635 0 10.7748C0 5.28606 4.51128 0.77478 10 0.77478C15.4887 0.77478 20 5.28606 20 10.7748C20 16.2635 15.4887 20.7748 10 20.7748ZM10 18.7447C14.4361 18.7447 17.9699 15.1357 17.9699 10.7748C17.9699 6.33869 14.3609 2.80486 10 2.80486C5.56391 2.80486 2.03008 6.33869 2.03008 10.7748C2.03008 15.2109 5.56391 18.7447 10 18.7447ZM7.06767 9.4214L9.02256 11.3763L13.0075 7.39132L14.4361 8.81989L9.02256 14.1582L5.6391 10.7748L7.06767 9.4214Z" fill="url(#paint0_linear_450_1606)"/>
<defs>
<linearGradient id="paint0_linear_450_1606" x1="2.32258" y1="2.02479" x2="18.8979" y2="3.48135" gradientUnits="userSpaceOnUse">
<stop stop-color="#DD4C05"/>
<stop offset="1" stop-color="#D13730"/>
</linearGradient>
</defs>
</svg>
