<svg width="31" height="22" viewBox="0 0 31 22" fill="none" xmlns="http://www.w3.org/2000/svg">
<path d="M7.8 8.7C9.2 8.9 10.4 9.6 11.3 10.5C12.5 11.7 13.2 13.4 13.2 15.2C13.2 16.7 12.7 18 11.9 19.2H12.1C13.8 19.2 15.3 18.5 16.4 17.4C17.5 16.3 18.2 14.8 18.2 13.1C18.2 11.4 17.5 9.9 16.4 8.8C15.3 7.7 13.8 7 12.1 7C10.8 7 9.6 7.4 8.6 8.1C8.3 8.2 8.1 8.4 7.8 8.7ZM9.2 21.3C8.4 21.6 7.6 21.8 6.6 21.8C4.8 21.8 3.1 21.1 1.9 19.9C0.7 18.7 0 17 0 15.2C0 13.4 0.7 11.7 1.9 10.5C2.6 9.8 3.4 9.3 4.3 9C5 7.7 5.9 6.6 7.1 5.8C8.3 5 9.7 4.4 11.2 4.3C12.2 3 13.5 2 14.9 1.2C16.4 0.4 18.1 0 19.9 0C22.9 0 25.6 1.2 27.6 3.2C29.6 5.2 30.8 7.9 30.8 10.9C30.8 13.9 29.6 16.6 27.6 18.6C25.6 20.6 22.9 21.8 19.9 21.8C19.1 21.8 18.3 21.7 17.5 21.5C16.9 21.4 16.4 21.2 15.8 21C14.7 21.5 13.4 21.8 12.1 21.8C11.4 21.8 10.7 21.7 10 21.6C9.8 21.5 9.5 21.4 9.2 21.3ZM18.5 19C18.9 19.1 19.4 19.1 19.8 19.1C22.1 19.1 24.1 18.2 25.6 16.7C27.1 15.2 28 13.2 28 10.9C28 8.6 27.1 6.6 25.6 5.1C24.1 3.6 22.1 2.7 19.8 2.7C18.5 2.7 17.2 3 16.1 3.6C15.6 3.9 15.1 4.2 14.6 4.6C16 5 17.3 5.8 18.3 6.8C19.9 8.4 20.9 10.6 20.9 13C20.9 15.3 20 17.5 18.5 19ZM9.4 12.4C8.7 11.7 7.7 11.2 6.6 11.2C5.5 11.2 4.5 11.6 3.8 12.4C3.1 13.1 2.6 14.1 2.6 15.2C2.6 16.3 3 17.3 3.8 18C4.6 18.7 5.5 19.2 6.6 19.2C7.7 19.2 8.7 18.8 9.4 18C10.1 17.3 10.6 16.3 10.6 15.2C10.6 14.1 10.1 13.1 9.4 12.4Z" fill="url(#paint0_linear_523_3935)"/>
<defs>
<linearGradient id="paint0_linear_523_3935" x1="3.57677" y1="1.36251" x2="28.9093" y2="4.50766" gradientUnits="userSpaceOnUse">
<stop stop-color="#DD4C05"/>
<stop offset="1" stop-color="#D13730"/>
</linearGradient>
</defs>
</svg>
