<svg width="27" height="27" viewBox="0 0 27 27" fill="none" xmlns="http://www.w3.org/2000/svg">
<path d="M17.1005 19L25.1005 27L27.0005 25.1L19.0005 17.1C22.6005 12.5 21.8005 5.79998 17.1005 2.19998C12.5005 -1.40002 5.80047 -0.500018 2.20047 4.09998C-1.39953 8.69998 -0.499529 15.4 4.10047 19C7.90047 22 13.3005 22 17.1005 19ZM18.6005 10.6C18.6005 15 15.0005 18.6 10.6005 18.6C6.20047 18.6 2.60047 15 2.60047 10.6C2.60047 6.19998 6.20047 2.59998 10.6005 2.59998C15.0005 2.69998 18.6005 6.19998 18.6005 10.6ZM5.30047 9.29998H9.30047V5.29998H12.0005V9.29998H16.0005V12H12.0005V16H9.30047V12H5.30047V9.29998Z" fill="url(#paint0_linear_556_4007)"/>
<defs>
<linearGradient id="paint0_linear_556_4007" x1="3.12345" y1="1.67424" x2="25.5118" y2="3.64163" gradientUnits="userSpaceOnUse">
<stop stop-color="#DD4C05"/>
<stop offset="1" stop-color="#D13730"/>
</linearGradient>
</defs>
</svg>
