<svg width="27" height="27" viewBox="0 0 27 27" fill="none" xmlns="http://www.w3.org/2000/svg">
<path d="M13.3 26.6C6 26.6 0 20.6 0 13.3C0 6 6 0 13.3 0C20.6 0 26.6 6 26.6 13.3C26.6 20.6 20.6 26.6 13.3 26.6ZM4.9 6.8C3.7 8.3 3 10.1 2.7 12H5.4V14.7H2.7C2.9 16.4 3.5 18 4.5 19.4C6.6 17.6 9.2 16.4 12 16.1V8.5H14.7V16C17.5 16.3 20.1 17.4 22.2 19.3C23.1 17.9 23.7 16.3 24 14.6H21.3V11.9H24C23.8 10 23 8.2 21.8 6.7L19.9 8.6L18 6.7L19.9 4.8C18.4 3.6 16.6 2.9 14.7 2.6V5.3H12V2.7C10 3 8.2 3.7 6.8 4.9L8.7 6.8L6.8 8.7L4.9 6.8ZM6.3 21.3C10.3 24.9 16.4 24.9 20.4 21.3C16.3 17.7 10.3 17.7 6.3 21.3Z" fill="url(#paint0_linear_556_4039)"/>
<defs>
<linearGradient id="paint0_linear_556_4039" x1="3.08903" y1="1.66252" x2="25.1342" y2="3.59974" gradientUnits="userSpaceOnUse">
<stop stop-color="#DD4C05"/>
<stop offset="1" stop-color="#D13730"/>
</linearGradient>
</defs>
</svg>
