<svg width="27" height="27" viewBox="0 0 27 27" fill="none" xmlns="http://www.w3.org/2000/svg">
<path d="M16 10.7H20V6.7H22.7V10.7H26.7V13.4H22.7V17.4H20V13.4H16V10.7ZM17.3 26.6V22.6C17.3 20.4 15.5 18.6 13.3 18.6H6.6C4.4 18.6 2.6 20.4 2.6 22.6V26.6H0V22.6C0 18.9 3 16 6.6 16H13.2C16.9 16 19.8 19 19.8 22.6V26.6H17.3ZM9.3 10.6C11.5 10.6 13.3 8.8 13.3 6.6C13.3 4.4 11.5 2.6 9.3 2.6C7.1 2.6 5.3 4.4 5.3 6.6C5.3 8.8 7.1 10.6 9.3 10.6ZM9.3 13.3C5.6 13.3 2.7 10.3 2.7 6.7C2.7 3.1 5.6 0 9.3 0C13 0 16 3 16 6.6C16 10.2 13 13.3 9.3 13.3Z" fill="url(#paint0_linear_556_4043)"/>
<defs>
<linearGradient id="paint0_linear_556_4043" x1="3.10064" y1="1.66252" x2="25.2274" y2="3.61422" gradientUnits="userSpaceOnUse">
<stop stop-color="#DD4C05"/>
<stop offset="1" stop-color="#D13730"/>
</linearGradient>
</defs>
</svg>
