<svg width="14" height="14" viewBox="0 0 14 14" fill="none" xmlns="http://www.w3.org/2000/svg">
<path d="M2.18724 1.03443C1.8618 0.706947 1.33416 0.706947 1.00873 1.03443C0.683289 1.36191 0.683289 1.89287 1.00873 2.22035L5.82101 7.0629L1.00878 11.9054C0.683339 12.2329 0.683339 12.7638 1.00878 13.0913C1.33421 13.4188 1.86185 13.4188 2.18729 13.0913L6.99952 8.24882L11.8117 13.0913C12.1372 13.4188 12.6648 13.4188 12.9903 13.0913C13.3157 12.7638 13.3157 12.2329 12.9903 11.9054L8.17803 7.0629L12.9903 2.22035C13.3157 1.89287 13.3157 1.36191 12.9903 1.03443C12.6649 0.706947 12.1372 0.706947 11.8118 1.03443L6.99952 5.87698L2.18724 1.03443Z" fill="#A1A1A1"/>
</svg>
