<svg width="123" height="123" viewBox="0 0 123 123" fill="none" xmlns="http://www.w3.org/2000/svg">
<path d="M61.5 0L78.0329 16.0762L101.031 14.3883L103.363 37.3305L122.066 50.8206L109.105 69.894L114.761 92.25L92.5717 98.5298L82.5342 119.291L61.5 109.839L40.4658 119.291L30.4283 98.5298L8.23944 92.25L13.8954 69.894L0.934322 50.8206L19.6372 37.3305L21.9686 14.3883L44.9671 16.0762L61.5 0Z" fill="url(#paint0_linear_1094_8853)"/>
<path d="M65.8921 66H57.5938V43.2803L57.6743 39.5474L57.8086 35.4653C56.43 36.8439 55.4722 37.748 54.9351 38.1777L50.4233 41.8032L46.4219 36.8081L59.0708 26.7373H65.8921V66Z" fill="#252B42"/>
<path d="M77.2209 66V63.646H75.4609V61.512H77.2209V59.796H75.4609V57.068H77.2209V50.292H82.2369C84.2609 50.292 85.7349 50.7027 86.6589 51.524C87.5976 52.3453 88.0669 53.4747 88.0669 54.912C88.0669 55.7627 87.8763 56.562 87.4949 57.31C87.1136 58.058 86.4756 58.6593 85.5809 59.114C84.7009 59.5687 83.4983 59.796 81.9729 59.796H80.5429V61.512H83.9309V63.646H80.5429V66H77.2209ZM81.6429 57.068C82.5816 57.068 83.3223 56.9067 83.8649 56.584C84.4223 56.2613 84.7009 55.7407 84.7009 55.022C84.7009 53.6873 83.8209 53.02 82.0609 53.02H80.5429V57.068H81.6429Z" fill="#252B42"/>
<path d="M46.8516 82H45.041V74.9453H41.8887V82H40.0723V73.4336H46.8516V82Z" fill="#374754"/>
<path d="M51.6859 76.5977C51.307 76.5977 51.0102 76.7188 50.7953 76.9609C50.5805 77.1992 50.4574 77.5391 50.4262 77.9805H52.934C52.9262 77.5391 52.8109 77.1992 52.5883 76.9609C52.3656 76.7188 52.0648 76.5977 51.6859 76.5977ZM51.9379 82.1172C50.8832 82.1172 50.059 81.8262 49.4652 81.2441C48.8715 80.6621 48.5746 79.8379 48.5746 78.7715C48.5746 77.6738 48.848 76.8262 49.3949 76.2285C49.9457 75.627 50.7055 75.3262 51.6742 75.3262C52.6 75.3262 53.3207 75.5898 53.8363 76.1172C54.352 76.6445 54.6098 77.373 54.6098 78.3027V79.1699H50.3852C50.4047 79.6777 50.5551 80.0742 50.8363 80.3594C51.1176 80.6445 51.5121 80.7871 52.0199 80.7871C52.4145 80.7871 52.7875 80.7461 53.1391 80.6641C53.4906 80.582 53.8578 80.4512 54.2406 80.2715V81.6543C53.9281 81.8105 53.5941 81.9258 53.2387 82C52.8832 82.0781 52.4496 82.1172 51.9379 82.1172Z" fill="#374754"/>
<path d="M59.7605 82.1172C58.991 82.1172 58.3875 81.8379 57.95 81.2793H57.8563C57.9188 81.8262 57.95 82.1426 57.95 82.2285V84.8828H56.1629V75.4492H57.616L57.868 76.2988H57.95C58.368 75.6504 58.9871 75.3262 59.8074 75.3262C60.5809 75.3262 61.1863 75.625 61.6238 76.2227C62.0613 76.8203 62.2801 77.6504 62.2801 78.7129C62.2801 79.4121 62.1766 80.0195 61.9695 80.5352C61.7664 81.0508 61.4754 81.4434 61.0965 81.7129C60.7176 81.9824 60.2723 82.1172 59.7605 82.1172ZM59.2332 76.7559C58.7918 76.7559 58.4695 76.8926 58.2664 77.166C58.0633 77.4355 57.9578 77.8828 57.95 78.5078V78.7012C57.95 79.4043 58.0535 79.9082 58.2605 80.2129C58.4715 80.5176 58.8035 80.6699 59.2566 80.6699C60.0574 80.6699 60.4578 80.0098 60.4578 78.6895C60.4578 78.0449 60.3582 77.5625 60.159 77.2422C59.9637 76.918 59.6551 76.7559 59.2332 76.7559Z" fill="#374754"/>
<path d="M69.9035 77.166C69.9035 77.5176 69.7922 77.8184 69.5695 78.0684C69.3508 78.3145 69.0266 78.4727 68.5969 78.543V78.5898C69.0617 78.6445 69.4289 78.8047 69.6984 79.0703C69.9719 79.332 70.1086 79.6562 70.1086 80.043C70.1086 80.6797 69.8586 81.166 69.3586 81.502C68.8586 81.834 68.1437 82 67.2141 82H63.8566V75.4492H67.2141C68.1125 75.4492 68.7844 75.5957 69.2297 75.8887C69.6789 76.1777 69.9035 76.6035 69.9035 77.166ZM68.257 79.9492C68.257 79.6914 68.1574 79.5059 67.9582 79.3926C67.759 79.2754 67.4602 79.2168 67.0617 79.2168H65.6437V80.7637H67.0969C67.4758 80.7637 67.7629 80.6934 67.9582 80.5527C68.1574 80.4082 68.257 80.207 68.257 79.9492ZM68.093 77.3066C68.093 76.9082 67.7766 76.709 67.1437 76.709H65.6437V78.0039H66.9387C67.3176 78.0039 67.6047 77.9492 67.8 77.8398C67.9953 77.7305 68.093 77.5527 68.093 77.3066Z" fill="#374754"/>
<path d="M73.4195 77.9805H74.2809C75.2809 77.9805 76.0211 78.1406 76.5016 78.4609C76.982 78.7812 77.2223 79.2656 77.2223 79.9141C77.2223 80.6055 76.982 81.127 76.5016 81.4785C76.0211 81.8262 75.3023 82 74.3453 82H71.6324V75.4492H73.4195V77.9805ZM75.4352 79.9375C75.4352 79.6836 75.3336 79.5 75.1305 79.3867C74.9273 79.2734 74.6246 79.2168 74.2223 79.2168H73.4195V80.7637H74.2457C75.0387 80.7637 75.4352 80.4883 75.4352 79.9375ZM79.9586 82H78.1715V75.4492H79.9586V82Z" fill="#374754"/>
<path d="M83.668 75.4492V78.0391C83.668 78.3125 83.623 78.9805 83.5332 80.043L86.5566 75.4492H88.707V82H86.9785V79.3867C86.9785 78.9219 87.0176 78.2656 87.0957 77.418L84.084 82H81.9395V75.4492H83.668ZM88.1797 72.6309C88.1055 73.3613 87.8301 73.8945 87.3535 74.2305C86.877 74.5625 86.1895 74.7285 85.291 74.7285C84.3652 74.7285 83.6797 74.5684 83.2344 74.248C82.793 73.9277 82.5449 73.3887 82.4902 72.6309H84.0898C84.1172 73.0332 84.2168 73.3164 84.3887 73.4805C84.5645 73.6406 84.877 73.7207 85.3262 73.7207C85.7207 73.7207 86.0137 73.6328 86.2051 73.457C86.4004 73.2773 86.5195 73.002 86.5625 72.6309H88.1797Z" fill="#374754"/>
<path d="M55.5355 96H53.8656V90.8379L53.7719 91.2012C53.5609 92.0254 53.3715 92.6484 53.2035 93.0703L52.0434 96H50.7719L49.5941 93.0469C49.4262 92.6172 49.2465 92.0137 49.0551 91.2363L48.9437 90.8379V96H47.2797V89.4492H49.7406L50.8656 92.2441C50.9828 92.5449 51.0902 92.8906 51.1879 93.2812C51.2895 93.6719 51.3578 94.0059 51.393 94.2832C51.5219 93.6973 51.6215 93.2773 51.6918 93.0234C51.766 92.7656 51.8461 92.5293 51.932 92.3145C52.018 92.0996 52.4066 91.1445 53.098 89.4492H55.5355V96Z" fill="#374754"/>
<path d="M60.2293 90.5977C59.8504 90.5977 59.5535 90.7188 59.3387 90.9609C59.1238 91.1992 59.0008 91.5391 58.9695 91.9805H61.4773C61.4695 91.5391 61.3543 91.1992 61.1316 90.9609C60.909 90.7188 60.6082 90.5977 60.2293 90.5977ZM60.4812 96.1172C59.4266 96.1172 58.6023 95.8262 58.0086 95.2441C57.4148 94.6621 57.118 93.8379 57.118 92.7715C57.118 91.6738 57.3914 90.8262 57.9383 90.2285C58.4891 89.627 59.2488 89.3262 60.2176 89.3262C61.1434 89.3262 61.8641 89.5898 62.3797 90.1172C62.8953 90.6445 63.1531 91.373 63.1531 92.3027V93.1699H58.9285C58.948 93.6777 59.0984 94.0742 59.3797 94.3594C59.6609 94.6445 60.0555 94.7871 60.5633 94.7871C60.9578 94.7871 61.3309 94.7461 61.6824 94.6641C62.034 94.582 62.4012 94.4512 62.784 94.2715V95.6543C62.4715 95.8105 62.1375 95.9258 61.782 96C61.4266 96.0781 60.993 96.1172 60.4812 96.1172Z" fill="#374754"/>
<path d="M67.3664 96.1172C65.3273 96.1172 64.3078 94.998 64.3078 92.7598C64.3078 91.6465 64.5852 90.7969 65.1398 90.2109C65.6945 89.6211 66.4895 89.3262 67.5246 89.3262C68.2824 89.3262 68.9621 89.4746 69.5637 89.7715L69.0363 91.1543C68.7551 91.041 68.4934 90.9492 68.2512 90.8789C68.009 90.8047 67.7668 90.7676 67.5246 90.7676C66.5949 90.7676 66.1301 91.4277 66.1301 92.748C66.1301 94.0293 66.5949 94.6699 67.5246 94.6699C67.8684 94.6699 68.1867 94.625 68.4797 94.5352C68.7727 94.4414 69.0656 94.2969 69.3586 94.1016V95.6309C69.0695 95.8145 68.7766 95.9414 68.4797 96.0117C68.1867 96.082 67.8156 96.1172 67.3664 96.1172Z" fill="#374754"/>
<path d="M71.9781 96H70.0445L71.8082 93.4102C71.3863 93.2344 71.066 92.9805 70.8473 92.6484C70.6324 92.3164 70.525 91.9258 70.525 91.4766C70.525 90.8438 70.7613 90.3477 71.234 89.9883C71.7105 89.6289 72.359 89.4492 73.1793 89.4492H76.2262V96H74.4391V93.5625H73.4547L71.9781 96ZM72.277 91.4883C72.277 91.7617 72.3844 91.9766 72.5992 92.1328C72.8141 92.2852 73.0953 92.3613 73.443 92.3613H74.4391V90.709H73.2145C72.9215 90.709 72.691 90.7812 72.523 90.9258C72.359 91.0664 72.277 91.2539 72.277 91.4883Z" fill="#374754"/>
<path d="M84.3887 94.6934H85.3437V98.3496H83.7383V96H78.1953V89.4492H79.9824V94.6582H82.5957V89.4492H84.3887V94.6934Z" fill="#374754"/>
<defs>
<linearGradient id="paint0_linear_1094_8853" x1="163.584" y1="219.777" x2="33.1216" y2="239.845" gradientUnits="userSpaceOnUse">
<stop stop-color="#FFB200"/>
<stop offset="1" stop-color="#FFF4B8"/>
</linearGradient>
</defs>
</svg>
