<svg width="13" height="16" viewBox="0 0 13 16" fill="none" xmlns="http://www.w3.org/2000/svg">
<path d="M1.98 16V13.646H0.22V11.512H1.98V9.796H0.22V7.068H1.98V0.291999H6.996C9.02 0.291999 10.494 0.702666 11.418 1.524C12.3567 2.34533 12.826 3.47467 12.826 4.912C12.826 5.76267 12.6353 6.562 12.254 7.31C11.8727 8.058 11.2347 8.65933 10.34 9.114C9.46 9.56867 8.25733 9.796 6.732 9.796H5.302V11.512H8.69V13.646H5.302V16H1.98ZM6.402 7.068C7.34067 7.068 8.08133 6.90667 8.624 6.584C9.18133 6.26133 9.46 5.74067 9.46 5.022C9.46 3.68733 8.58 3.02 6.82 3.02H5.302V7.068H6.402Z" fill="white"/>
</svg>
