<svg width="63" height="24" viewBox="0 0 63 24" fill="none" xmlns="http://www.w3.org/2000/svg">
<path d="M44.3446 18.4129C44.9362 18.4129 45.4115 18.5501 45.7495 18.835C46.0876 19.1199 46.2566 19.5103 46.2566 20.0062C46.2566 20.5022 46.0876 20.8926 45.7495 21.1775C45.4115 21.4624 44.9362 21.5995 44.3446 21.5995H43.2038V23.0029H42.5488V18.4129H44.3446ZM44.3235 21.0403C44.7355 21.0403 45.0524 20.9559 45.2742 20.7765C45.496 20.5971 45.6017 20.3439 45.6017 20.0168C45.6017 19.6897 45.496 19.4259 45.2742 19.257C45.0524 19.0777 44.7355 18.9932 44.3235 18.9932H43.2038V21.0508L44.3235 21.0403ZM48.1474 18.4129H48.8024V22.4331H51.2953V23.0029H48.1474V18.4129ZM56.1017 21.8528H53.6615L53.1545 23.0029H52.4784L54.5594 18.4129H55.2143L57.3059 23.0029H56.6193L56.1017 21.8528ZM55.8693 21.3252L54.8763 19.0777L53.8834 21.3252H55.8693ZM61.1721 21.4096V22.9924H60.5172V21.3885L58.6897 18.4023H59.3974L60.8658 20.8187L62.3446 18.4023H62.9996L61.1721 21.4096Z" fill="#2090FF"/>
<path d="M53.4192 6.86921H59.1023C59.4509 6.86921 59.7784 6.90086 60.0742 6.95362C60.3805 7.00638 60.6552 7.0908 60.9087 7.20687C61.1622 7.32294 61.384 7.46011 61.5847 7.62894C61.7855 7.79777 61.9545 7.99825 62.1024 8.23039C62.1869 8.36756 62.2608 8.51529 62.3242 8.67357C62.3876 8.83184 62.4404 8.99012 62.4721 9.1695C62.5038 9.33833 62.5355 9.58102 62.5566 9.87647C62.5777 10.1719 62.5883 10.5307 62.5883 10.9317V16.0282H60.0847V9.09564H55.9016V16.0282H53.4087V6.86921H53.4192ZM37.965 11.0372L36.4861 14.973C36.3171 15.4162 36.0636 15.7855 35.7361 16.0493C35.4192 16.3131 35.0389 16.4608 34.6269 16.4608C34.2255 16.4608 33.8453 16.3131 33.5284 16.0598C33.2114 15.8066 32.9474 15.4373 32.7889 15.0046L29.7361 6.87976H32.3875L34.6375 13.2108L36.8875 6.87976H39.0636L41.3136 13.2108L43.5636 6.87976H46.215L43.1622 14.9835C42.9932 15.4267 42.7396 15.796 42.4122 16.0598C42.0953 16.3236 41.715 16.4713 41.303 16.4713C40.9016 16.4713 40.5213 16.3236 40.2044 16.0704C39.8875 15.8171 39.6234 15.4478 39.465 15.0152L37.965 11.0372ZM49.9122 4.57947H52.7537V6.86921H49.9122V4.57947ZM46.7537 6.86921H49.2467V16.0282H46.7537V6.86921ZM26.0389 6.86921V16.0282H23.1973V6.86921H20.0283V4.57947H29.2079V6.86921H26.0389Z" fill="white"/>
<path d="M6.67578 0V22.9924L20.0385 11.4909L6.67578 0Z" fill="#B2E7FF"/>
<path d="M16.6899 14.3715V8.62082L6.67578 0V22.9924L16.6899 14.3715Z" fill="#7FCAFF"/>
<path d="M13.3519 17.2416V5.74018L6.67578 0V22.9924L13.3519 17.2416Z" fill="#2090FF"/>
<path d="M10.0138 20.1223V2.87009L6.67578 0V22.9924L10.0138 20.1223Z" fill="#0C6CEE"/>
<path d="M0 0V22.9924L13.3627 11.4909L0 0Z" fill="#FEDC32"/>
<path d="M10.0247 14.3715V8.62082L0 0V22.9924L10.0247 14.3715Z" fill="#F9A322"/>
<path d="M6.68663 17.2416V5.74018L0 0V22.9924L6.68663 17.2416Z" fill="#F45721"/>
<path d="M3.3486 20.1223V2.87009L0 0V22.9924L3.3486 20.1223Z" fill="#DB1A13"/>
</svg>
