<svg width="31" height="23" viewBox="0 0 31 23" fill="none" xmlns="http://www.w3.org/2000/svg">
<path d="M7.90156 9.35002C9.30156 9.55002 10.5016 10.25 11.4016 11.15C12.6016 12.35 13.3016 14.05 13.3016 15.85C13.3016 17.35 12.8016 18.65 12.0016 19.85H12.2016C13.9016 19.85 15.4016 19.15 16.5016 18.05C17.6016 16.95 18.3016 15.45 18.3016 13.75C18.3016 12.05 17.6016 10.55 16.5016 9.45002C15.4016 8.35002 13.9016 7.65002 12.2016 7.65002C10.9016 7.65002 9.70156 8.05002 8.70156 8.75002C8.40156 8.85003 8.20156 9.05002 7.90156 9.35002ZM9.30156 21.95C8.50156 22.25 7.70156 22.45 6.70156 22.45C4.90156 22.45 3.20156 21.75 2.00156 20.55C0.801562 19.35 0.101562 17.65 0.101562 15.85C0.101562 14.05 0.801562 12.35 2.00156 11.15C2.70156 10.45 3.50156 9.95002 4.40156 9.65002C5.10156 8.35002 6.00156 7.25002 7.20156 6.45002C8.40156 5.65002 9.80156 5.05002 11.3016 4.95002C12.3016 3.65002 13.6016 2.65002 15.0016 1.85002C16.5016 1.05002 18.2016 0.650024 20.0016 0.650024C23.0016 0.650024 25.7016 1.85002 27.7016 3.85002C29.7016 5.85002 30.9016 8.55002 30.9016 11.55C30.9016 14.55 29.7016 17.25 27.7016 19.25C25.7016 21.25 23.0016 22.45 20.0016 22.45C19.2016 22.45 18.4016 22.35 17.6016 22.15C17.0016 22.05 16.5016 21.85 15.9016 21.65C14.8016 22.15 13.5016 22.45 12.2016 22.45C11.5016 22.45 10.8016 22.35 10.1016 22.25C9.90156 22.15 9.60156 22.05 9.30156 21.95ZM18.6016 19.65C19.0016 19.75 19.5016 19.75 19.9016 19.75C22.2016 19.75 24.2016 18.85 25.7016 17.35C27.2016 15.85 28.1016 13.85 28.1016 11.55C28.1016 9.25002 27.2016 7.25002 25.7016 5.75002C24.2016 4.25002 22.2016 3.35002 19.9016 3.35002C18.6016 3.35002 17.3016 3.65002 16.2016 4.25002C15.7016 4.55002 15.2016 4.85002 14.7016 5.25002C16.1016 5.65002 17.4016 6.45002 18.4016 7.45002C20.0016 9.05002 21.0016 11.25 21.0016 13.65C21.0016 15.95 20.1016 18.15 18.6016 19.65ZM9.50156 13.05C8.80156 12.35 7.80156 11.85 6.70156 11.85C5.60156 11.85 4.60156 12.25 3.90156 13.05C3.20156 13.75 2.70156 14.75 2.70156 15.85C2.70156 16.95 3.10156 17.95 3.90156 18.65C4.70156 19.35 5.60156 19.85 6.70156 19.85C7.80156 19.85 8.80156 19.45 9.50156 18.65C10.2016 17.95 10.7016 16.95 10.7016 15.85C10.7016 14.75 10.2016 13.75 9.50156 13.05Z" fill="url(#paint0_linear_731_5716)"/>
<defs>
<linearGradient id="paint0_linear_731_5716" x1="3.67833" y1="2.01254" x2="29.0109" y2="5.15768" gradientUnits="userSpaceOnUse">
<stop stop-color="#DD4C05"/>
<stop offset="1" stop-color="#D13730"/>
</linearGradient>
</defs>
</svg>
