<svg width="27" height="27" viewBox="0 0 27 27" fill="none" xmlns="http://www.w3.org/2000/svg">
<path d="M13.4992 26.85C6.19922 26.85 0.199219 20.85 0.199219 13.55C0.199219 6.25 6.19922 0.25 13.4992 0.25C20.7992 0.25 26.7992 6.25 26.7992 13.55C26.7992 20.85 20.7992 26.85 13.4992 26.85ZM5.09922 7.05C3.89922 8.55 3.19922 10.35 2.89922 12.25H5.59922V14.95H2.89922C3.09922 16.65 3.69922 18.25 4.69922 19.65C6.79922 17.85 9.39922 16.65 12.1992 16.35V8.75H14.8992V16.25C17.6992 16.55 20.2992 17.65 22.3992 19.55C23.2992 18.15 23.8992 16.55 24.1992 14.85H21.4992V12.15H24.1992C23.9992 10.25 23.1992 8.45 21.9992 6.95L20.0992 8.85L18.1992 6.95L20.0992 5.05C18.5992 3.85 16.7992 3.15 14.8992 2.85V5.55H12.1992V2.95C10.1992 3.25 8.39922 3.95 6.99922 5.15L8.89922 7.05L6.99922 8.95L5.09922 7.05ZM6.49922 21.55C10.4992 25.15 16.5992 25.15 20.5992 21.55C16.4992 17.95 10.4992 17.95 6.49922 21.55Z" fill="url(#paint0_linear_731_5718)"/>
<defs>
<linearGradient id="paint0_linear_731_5718" x1="3.28825" y1="1.91252" x2="25.3334" y2="3.84974" gradientUnits="userSpaceOnUse">
<stop stop-color="#DD4C05"/>
<stop offset="1" stop-color="#D13730"/>
</linearGradient>
</defs>
</svg>
