<svg width="13" height="16" viewBox="0 0 13 16" fill="none" xmlns="http://www.w3.org/2000/svg">
<path d="M1.98 16V0.291999H6.996C9.02 0.291999 10.494 0.702666 11.418 1.524C12.3567 2.34533 12.826 3.47467 12.826 4.912C12.826 5.76267 12.6353 6.562 12.254 7.31C11.8727 8.058 11.2347 8.65933 10.34 9.114C9.46 9.56867 8.25733 9.796 6.732 9.796H5.302V16H1.98ZM0.22 13.646V11.512H8.69V13.646H0.22ZM0.22 9.796V7.068H6.666V9.796H0.22ZM6.402 7.068C7.03267 7.068 7.57533 7.002 8.03 6.87C8.48467 6.72333 8.83667 6.496 9.086 6.188C9.33533 5.88 9.46 5.49133 9.46 5.022C9.46 4.34733 9.24733 3.84867 8.822 3.526C8.39667 3.18867 7.72933 3.02 6.82 3.02H5.302V7.068H6.402Z" fill="url(#paint0_linear_1204_9931)"/>
<defs>
<linearGradient id="paint0_linear_1204_9931" x1="1.62581" y1="-6.93748" x2="13.3019" y2="-6.50219" gradientUnits="userSpaceOnUse">
<stop stop-color="#DD4C05"/>
<stop offset="1" stop-color="#D13730"/>
</linearGradient>
</defs>
</svg>
