<svg width="48" height="65" viewBox="0 0 48 65" fill="none" xmlns="http://www.w3.org/2000/svg">
<path fill-rule="evenodd" clip-rule="evenodd" d="M48 24.7144C48 37.6817 37.7159 48.2471 24.8588 48.6993V54.786C27.2895 55.1955 29.1412 57.3101 29.1412 59.8572C29.1412 62.6975 26.8386 65.0001 23.9983 65.0001C21.158 65.0001 18.8555 62.6975 18.8555 59.8572C18.8555 57.3078 20.7106 55.1916 23.1445 54.7849V48.6994C10.2859 48.2489 0 37.6828 0 24.7144C0 11.4595 10.7452 0.714355 24 0.714355C37.2548 0.714355 48 11.4595 48 24.7144Z" fill="#C4C4C4"/>
<path d="M14.585 26H13.1611V16.8418C13.1611 16.0801 13.1846 15.3594 13.2314 14.6797C13.1084 14.8027 12.9707 14.9316 12.8184 15.0664C12.666 15.2012 11.9688 15.7725 10.7266 16.7803L9.95312 15.7783L13.3545 13.1504H14.585V26Z" fill="white"/>
<path d="M28.2471 19.5576C28.2471 21.7783 27.8955 23.4365 27.1924 24.5322C26.4951 25.6279 25.4258 26.1758 23.9844 26.1758C22.6016 26.1758 21.5498 25.6162 20.8291 24.4971C20.1084 23.3721 19.748 21.7256 19.748 19.5576C19.748 17.3193 20.0967 15.6582 20.7939 14.5742C21.4912 13.4902 22.5547 12.9482 23.9844 12.9482C25.3789 12.9482 26.4365 13.5137 27.1572 14.6445C27.8838 15.7754 28.2471 17.4131 28.2471 19.5576ZM21.2246 19.5576C21.2246 21.4268 21.4443 22.7891 21.8838 23.6445C22.3232 24.4941 23.0234 24.9189 23.9844 24.9189C24.957 24.9189 25.6602 24.4883 26.0938 23.627C26.5332 22.7598 26.7529 21.4033 26.7529 19.5576C26.7529 17.7119 26.5332 16.3613 26.0938 15.5059C25.6602 14.6445 24.957 14.2139 23.9844 14.2139C23.0234 14.2139 22.3232 14.6387 21.8838 15.4883C21.4443 16.332 21.2246 17.6885 21.2246 19.5576Z" fill="white"/>
<path d="M38.7979 19.5576C38.7979 21.7783 38.4463 23.4365 37.7432 24.5322C37.0459 25.6279 35.9766 26.1758 34.5352 26.1758C33.1523 26.1758 32.1006 25.6162 31.3799 24.4971C30.6592 23.3721 30.2988 21.7256 30.2988 19.5576C30.2988 17.3193 30.6475 15.6582 31.3447 14.5742C32.042 13.4902 33.1055 12.9482 34.5352 12.9482C35.9297 12.9482 36.9873 13.5137 37.708 14.6445C38.4346 15.7754 38.7979 17.4131 38.7979 19.5576ZM31.7754 19.5576C31.7754 21.4268 31.9951 22.7891 32.4346 23.6445C32.874 24.4941 33.5742 24.9189 34.5352 24.9189C35.5078 24.9189 36.2109 24.4883 36.6445 23.627C37.084 22.7598 37.3037 21.4033 37.3037 19.5576C37.3037 17.7119 37.084 16.3613 36.6445 15.5059C36.2109 14.6445 35.5078 14.2139 34.5352 14.2139C33.5742 14.2139 32.874 14.6387 32.4346 15.4883C31.9951 16.332 31.7754 17.6885 31.7754 19.5576Z" fill="white"/>
<path d="M15.291 37L12.627 30.0391H12.584C12.6341 30.5905 12.6592 31.2458 12.6592 32.0049V37H11.8159V29.1475H13.1909L15.6777 35.625H15.7207L18.229 29.1475H19.5933V37H18.6802V31.9404C18.6802 31.3604 18.7052 30.7301 18.7554 30.0498H18.7124L16.0269 37H15.291Z" fill="white"/>
<path d="M21.562 33.4712C21.562 32.1821 21.7518 31.1777 22.1313 30.458C22.5109 29.7347 23.1125 29.2835 23.936 29.1045C24.9601 28.8861 25.8625 28.7088 26.6431 28.5728L26.8096 29.3569C25.5671 29.5646 24.679 29.7293 24.1455 29.8511C23.6263 29.9692 23.236 30.2485 22.9746 30.689C22.7168 31.1294 22.5754 31.7292 22.5503 32.4883H22.6147C22.8368 32.1875 23.1232 31.9512 23.4741 31.7793C23.825 31.6074 24.1921 31.5215 24.5752 31.5215C25.2985 31.5215 25.8625 31.756 26.2671 32.2251C26.6717 32.6942 26.874 33.3441 26.874 34.1748C26.874 35.0951 26.6395 35.8148 26.1704 36.334C25.7013 36.8496 25.0479 37.1074 24.21 37.1074C23.3828 37.1074 22.7347 36.7905 22.2656 36.1567C21.7965 35.5229 21.562 34.6278 21.562 33.4712ZM24.2905 36.3608C25.3826 36.3608 25.9287 35.6644 25.9287 34.2715C25.9287 32.943 25.4328 32.2788 24.4409 32.2788C24.1688 32.2788 23.9056 32.3361 23.6514 32.4507C23.4007 32.5617 23.1698 32.7103 22.9585 32.8965C22.7508 33.0827 22.5897 33.2743 22.4751 33.4712C22.4751 34.4129 22.6237 35.1309 22.9209 35.625C23.2181 36.1156 23.6746 36.3608 24.2905 36.3608Z" fill="white"/>
<path d="M31.6626 29.1475L28.7354 37H27.8438L30.771 29.1475H31.6626Z" fill="white"/>
<path d="M35.3232 37.1074C34.471 37.1074 33.8104 36.846 33.3413 36.3232C32.8758 35.7969 32.6431 35.0539 32.6431 34.0942C32.6431 33.1095 32.8794 32.3486 33.3521 31.8115C33.8283 31.2744 34.505 31.0059 35.3823 31.0059C35.6652 31.0059 35.9481 31.0363 36.231 31.0972C36.5138 31.158 36.7358 31.2297 36.897 31.312L36.623 32.0693C36.4261 31.9906 36.2113 31.9261 35.9785 31.876C35.7458 31.8223 35.5399 31.7954 35.3608 31.7954C34.1649 31.7954 33.5669 32.5581 33.5669 34.0835C33.5669 34.8068 33.7119 35.3618 34.002 35.7485C34.2956 36.1353 34.7288 36.3286 35.3018 36.3286C35.7923 36.3286 36.2954 36.223 36.811 36.0117V36.8013C36.4172 37.0054 35.9212 37.1074 35.3232 37.1074Z" fill="white"/>
</svg>
