<svg width="54" height="73" viewBox="0 0 54 73" fill="none" xmlns="http://www.w3.org/2000/svg">
<path fill-rule="evenodd" clip-rule="evenodd" d="M54 27.6787C54 42.2678 42.4291 54.1544 27.9637 54.6618V61.5085C30.7006 61.9671 32.7863 64.3472 32.7863 67.2144C32.7863 70.4098 30.1959 73.0001 27.0006 73.0001C23.8052 73.0001 21.2148 70.4098 21.2148 67.2144C21.2148 64.348 23.2993 61.9684 26.0352 61.5089V54.6618C11.5703 54.1537 0 42.2674 0 27.6787C0 12.767 12.0883 0.678711 27 0.678711C41.9117 0.678711 54 12.767 54 27.6787Z" fill="#C4C4C4"/>
<path d="M20.4434 30H11.0586V28.6035L14.8184 24.8242C15.9642 23.6654 16.7194 22.8385 17.084 22.3438C17.4486 21.849 17.722 21.3672 17.9043 20.8984C18.0866 20.4297 18.1777 19.9251 18.1777 19.3848C18.1777 18.623 17.9466 18.0208 17.4844 17.5781C17.0221 17.1289 16.3809 16.9043 15.5605 16.9043C14.9681 16.9043 14.4049 17.002 13.8711 17.1973C13.3438 17.3926 12.7546 17.7474 12.1035 18.2617L11.2441 17.1582C12.5592 16.0645 13.9915 15.5176 15.541 15.5176C16.8822 15.5176 17.9336 15.8626 18.6953 16.5527C19.457 17.2363 19.8379 18.1576 19.8379 19.3164C19.8379 20.2214 19.584 21.1165 19.0762 22.002C18.5684 22.8874 17.6178 24.0072 16.2246 25.3613L13.0996 28.418V28.4961H20.4434V30Z" fill="white"/>
<path d="M32.2168 22.8418C32.2168 25.3092 31.8262 27.1517 31.0449 28.3691C30.2702 29.5866 29.082 30.1953 27.4805 30.1953C25.944 30.1953 24.7754 29.5736 23.9746 28.3301C23.1738 27.0801 22.7734 25.2507 22.7734 22.8418C22.7734 20.3548 23.1608 18.5091 23.9355 17.3047C24.7103 16.1003 25.8919 15.498 27.4805 15.498C29.0299 15.498 30.2051 16.1263 31.0059 17.3828C31.8132 18.6393 32.2168 20.459 32.2168 22.8418ZM24.4141 22.8418C24.4141 24.9186 24.6582 26.4323 25.1465 27.3828C25.6348 28.3268 26.4128 28.7988 27.4805 28.7988C28.5612 28.7988 29.3424 28.3203 29.8242 27.3633C30.3125 26.3997 30.5566 24.8926 30.5566 22.8418C30.5566 20.791 30.3125 19.2904 29.8242 18.3398C29.3424 17.3828 28.5612 16.9043 27.4805 16.9043C26.4128 16.9043 25.6348 17.3763 25.1465 18.3203C24.6582 19.2578 24.4141 20.765 24.4141 22.8418Z" fill="white"/>
<path d="M43.9121 22.8418C43.9121 25.3092 43.5215 27.1517 42.7402 28.3691C41.9655 29.5866 40.7773 30.1953 39.1758 30.1953C37.6393 30.1953 36.4707 29.5736 35.6699 28.3301C34.8691 27.0801 34.4688 25.2507 34.4688 22.8418C34.4688 20.3548 34.8561 18.5091 35.6309 17.3047C36.4056 16.1003 37.5872 15.498 39.1758 15.498C40.7253 15.498 41.9004 16.1263 42.7012 17.3828C43.5085 18.6393 43.9121 20.459 43.9121 22.8418ZM36.1094 22.8418C36.1094 24.9186 36.3535 26.4323 36.8418 27.3828C37.3301 28.3268 38.1081 28.7988 39.1758 28.7988C40.2565 28.7988 41.0378 28.3203 41.5195 27.3633C42.0078 26.3997 42.252 24.8926 42.252 22.8418C42.252 20.791 42.0078 19.2904 41.5195 18.3398C41.0378 17.3828 40.2565 16.9043 39.1758 16.9043C38.1081 16.9043 37.3301 17.3763 36.8418 18.3203C36.3535 19.2578 36.1094 20.765 36.1094 22.8418Z" fill="white"/>
<path d="M18.0312 42L15.125 34.4062H15.0781C15.1328 35.0078 15.1602 35.7227 15.1602 36.5508V42H14.2402V33.4336H15.7402L18.4531 40.5H18.5L21.2363 33.4336H22.7246V42H21.7285V36.4805C21.7285 35.8477 21.7559 35.1602 21.8105 34.418H21.7637L18.834 42H18.0312Z" fill="white"/>
<path d="M24.8496 38.1504C24.8496 36.7441 25.0566 35.6484 25.4707 34.8633C25.8848 34.0742 26.541 33.582 27.4395 33.3867C28.5566 33.1484 29.541 32.9551 30.3926 32.8066L30.5742 33.6621C29.2188 33.8887 28.25 34.0684 27.668 34.2012C27.1016 34.3301 26.6758 34.6348 26.3906 35.1152C26.1094 35.5957 25.9551 36.25 25.9277 37.0781H25.998C26.2402 36.75 26.5527 36.4922 26.9355 36.3047C27.3184 36.1172 27.7188 36.0234 28.1367 36.0234C28.9258 36.0234 29.541 36.2793 29.9824 36.791C30.4238 37.3027 30.6445 38.0117 30.6445 38.918C30.6445 39.9219 30.3887 40.707 29.877 41.2734C29.3652 41.8359 28.6523 42.1172 27.7383 42.1172C26.8359 42.1172 26.1289 41.7715 25.6172 41.0801C25.1055 40.3887 24.8496 39.4121 24.8496 38.1504ZM27.8262 41.3027C29.0176 41.3027 29.6133 40.543 29.6133 39.0234C29.6133 37.5742 29.0723 36.8496 27.9902 36.8496C27.6934 36.8496 27.4062 36.9121 27.1289 37.0371C26.8555 37.1582 26.6035 37.3203 26.373 37.5234C26.1465 37.7266 25.9707 37.9355 25.8457 38.1504C25.8457 39.1777 26.0078 39.9609 26.332 40.5C26.6562 41.0352 27.1543 41.3027 27.8262 41.3027Z" fill="white"/>
<path d="M35.8457 33.4336L32.6523 42H31.6797L34.873 33.4336H35.8457Z" fill="white"/>
<path d="M39.8164 42.1172C38.8867 42.1172 38.166 41.832 37.6543 41.2617C37.1465 40.6875 36.8926 39.877 36.8926 38.8301C36.8926 37.7559 37.1504 36.9258 37.666 36.3398C38.1855 35.7539 38.9238 35.4609 39.8809 35.4609C40.1895 35.4609 40.498 35.4941 40.8066 35.5605C41.1152 35.627 41.3574 35.7051 41.5332 35.7949L41.2344 36.6211C41.0195 36.5352 40.7852 36.4648 40.5312 36.4102C40.2773 36.3516 40.0527 36.3223 39.8574 36.3223C38.5527 36.3223 37.9004 37.1543 37.9004 38.8184C37.9004 39.6074 38.0586 40.2129 38.375 40.6348C38.6953 41.0566 39.168 41.2676 39.793 41.2676C40.3281 41.2676 40.877 41.1523 41.4395 40.9219V41.7832C41.0098 42.0059 40.4688 42.1172 39.8164 42.1172Z" fill="white"/>
</svg>
