<svg width="56" height="75" viewBox="0 0 56 75" fill="none" xmlns="http://www.w3.org/2000/svg">
<path fill-rule="evenodd" clip-rule="evenodd" d="M56 28C56 43.1292 44.0008 55.4559 29 55.9825V63.083C31.8377 63.559 34 66.027 34 69C34 72.3137 31.3137 75 28 75C24.6863 75 22 72.3137 22 69C22 66.027 24.1623 63.559 27 63.083V55.9825C11.9992 55.4559 0 43.1292 0 28C0 12.536 12.536 0 28 0C43.464 0 56 12.536 56 28Z" fill="#C4C4C4"/>
<path d="M13.6758 19.5352C15.4805 19.5352 16.8984 19.9844 17.9297 20.8828C18.9688 21.7734 19.4883 22.9961 19.4883 24.5508C19.4883 26.3242 18.9219 27.7148 17.7891 28.7227C16.6641 29.7305 15.1094 30.2344 13.125 30.2344C11.1953 30.2344 9.72266 29.9258 8.70703 29.3086V27.4336C9.25391 27.7852 9.93359 28.0625 10.7461 28.2656C11.5586 28.4609 12.3594 28.5586 13.1484 28.5586C14.5234 28.5586 15.5898 28.2344 16.3477 27.5859C17.1133 26.9375 17.4961 26 17.4961 24.7734C17.4961 22.3828 16.0312 21.1875 13.1016 21.1875C12.3594 21.1875 11.3672 21.3008 10.125 21.5273L9.11719 20.8828L9.76172 12.8672H18.2812V14.6602H11.4258L10.9922 19.8047C11.8906 19.625 12.7852 19.5352 13.6758 19.5352Z" fill="white"/>
<path d="M33.6602 21.4102C33.6602 24.3711 33.1914 26.582 32.2539 28.043C31.3242 29.5039 29.8984 30.2344 27.9766 30.2344C26.1328 30.2344 24.7305 29.4883 23.7695 27.9961C22.8086 26.4961 22.3281 24.3008 22.3281 21.4102C22.3281 18.4258 22.793 16.2109 23.7227 14.7656C24.6523 13.3203 26.0703 12.5977 27.9766 12.5977C29.8359 12.5977 31.2461 13.3516 32.207 14.8594C33.1758 16.3672 33.6602 18.5508 33.6602 21.4102ZM24.2969 21.4102C24.2969 23.9023 24.5898 25.7188 25.1758 26.8594C25.7617 27.9922 26.6953 28.5586 27.9766 28.5586C29.2734 28.5586 30.2109 27.9844 30.7891 26.8359C31.375 25.6797 31.668 23.8711 31.668 21.4102C31.668 18.9492 31.375 17.1484 30.7891 16.0078C30.2109 14.8594 29.2734 14.2852 27.9766 14.2852C26.6953 14.2852 25.7617 14.8516 25.1758 15.9844C24.5898 17.1094 24.2969 18.918 24.2969 21.4102Z" fill="white"/>
<path d="M47.6445 21.4102C47.6445 24.3711 47.1758 26.582 46.2383 28.043C45.3086 29.5039 43.8828 30.2344 41.9609 30.2344C40.1172 30.2344 38.7148 29.4883 37.7539 27.9961C36.793 26.4961 36.3125 24.3008 36.3125 21.4102C36.3125 18.4258 36.7773 16.2109 37.707 14.7656C38.6367 13.3203 40.0547 12.5977 41.9609 12.5977C43.8203 12.5977 45.2305 13.3516 46.1914 14.8594C47.1602 16.3672 47.6445 18.5508 47.6445 21.4102ZM38.2812 21.4102C38.2812 23.9023 38.5742 25.7188 39.1602 26.8594C39.7461 27.9922 40.6797 28.5586 41.9609 28.5586C43.2578 28.5586 44.1953 27.9844 44.7734 26.8359C45.3594 25.6797 45.6523 23.8711 45.6523 21.4102C45.6523 18.9492 45.3594 17.1484 44.7734 16.0078C44.1953 14.8594 43.2578 14.2852 41.9609 14.2852C40.6797 14.2852 39.7461 14.8516 39.1602 15.9844C38.5742 17.1094 38.2812 18.918 38.2812 21.4102Z" fill="white"/>
<path d="M17.0156 44L13.625 35.1406H13.5703C13.6341 35.8424 13.666 36.6764 13.666 37.6426V44H12.5928V34.0059H14.3428L17.5078 42.25H17.5625L20.7549 34.0059H22.4912V44H21.3291V37.5605C21.3291 36.8223 21.361 36.0202 21.4248 35.1543H21.3701L17.9521 44H17.0156Z" fill="white"/>
<path d="M24.9287 39.5088C24.9287 37.8682 25.1702 36.5898 25.6533 35.6738C26.1364 34.7533 26.902 34.179 27.9502 33.9512C29.2536 33.6732 30.402 33.4476 31.3955 33.2744L31.6074 34.2725C30.026 34.5368 28.8958 34.7464 28.2168 34.9014C27.556 35.0518 27.0592 35.4072 26.7266 35.9678C26.3984 36.5283 26.2184 37.2917 26.1865 38.2578H26.2686C26.5511 37.875 26.9157 37.5742 27.3623 37.3555C27.8089 37.1367 28.276 37.0273 28.7637 37.0273C29.6842 37.0273 30.402 37.3258 30.917 37.9229C31.432 38.5199 31.6895 39.347 31.6895 40.4043C31.6895 41.5755 31.391 42.4915 30.7939 43.1523C30.1969 43.8086 29.3652 44.1367 28.2988 44.1367C27.2461 44.1367 26.4212 43.7334 25.8242 42.9268C25.2272 42.1201 24.9287 40.9808 24.9287 39.5088ZM28.4014 43.1865C29.7913 43.1865 30.4863 42.3001 30.4863 40.5273C30.4863 38.8366 29.8551 37.9912 28.5928 37.9912C28.2464 37.9912 27.9115 38.0641 27.5879 38.21C27.2689 38.3512 26.9749 38.5404 26.7061 38.7773C26.4417 39.0143 26.2367 39.2581 26.0908 39.5088C26.0908 40.7074 26.2799 41.6211 26.6582 42.25C27.0365 42.8743 27.6175 43.1865 28.4014 43.1865Z" fill="white"/>
<path d="M37.7158 34.0059L33.9902 44H32.8555L36.5811 34.0059H37.7158Z" fill="white"/>
<path d="M42.3066 44.1367C41.222 44.1367 40.3812 43.804 39.7842 43.1387C39.1917 42.4688 38.8955 41.5231 38.8955 40.3018C38.8955 39.0485 39.1963 38.0801 39.7979 37.3965C40.404 36.7129 41.2653 36.3711 42.3818 36.3711C42.7419 36.3711 43.1019 36.4098 43.4619 36.4873C43.8219 36.5648 44.1045 36.6559 44.3096 36.7607L43.9609 37.7246C43.7103 37.6243 43.4368 37.5423 43.1406 37.4785C42.8444 37.4102 42.5824 37.376 42.3545 37.376C40.8324 37.376 40.0713 38.3467 40.0713 40.2881C40.0713 41.2087 40.2559 41.915 40.625 42.4072C40.9987 42.8994 41.5501 43.1455 42.2793 43.1455C42.9036 43.1455 43.5439 43.0111 44.2002 42.7422V43.7471C43.6989 44.0068 43.0677 44.1367 42.3066 44.1367Z" fill="white"/>
</svg>
