<svg width="41" height="55" viewBox="0 0 41 55" fill="none" xmlns="http://www.w3.org/2000/svg">
<path fill-rule="evenodd" clip-rule="evenodd" d="M41 20.5894C41 31.6656 32.2158 40.6901 21.2338 41.0765V46.2757C23.3098 46.6256 24.8912 48.4317 24.8912 50.6072C24.8912 53.0333 22.9244 55.0001 20.4983 55.0001C18.0722 55.0001 16.1055 53.0333 16.1055 50.6072C16.1055 48.4294 17.6903 46.6217 19.7695 46.2745V41.0766C8.78601 40.6919 0 31.6667 0 20.5894C0 9.26752 9.17816 0.0893555 20.5 0.0893555C31.8218 0.0893555 41 9.26752 41 20.5894Z" fill="url(#paint0_linear_1205_9938)"/>
<path d="M14.4443 21L19.1787 10.7734H12.9521V9.57812H20.5537V10.6172L15.8818 21H14.4443Z" fill="white"/>
<path d="M29.9756 15.2734C29.9756 17.2474 29.6631 18.7214 29.0381 19.6953C28.4183 20.6693 27.4678 21.1562 26.1865 21.1562C24.9574 21.1562 24.0225 20.6589 23.3818 19.6641C22.7412 18.6641 22.4209 17.2005 22.4209 15.2734C22.4209 13.2839 22.7308 11.8073 23.3506 10.8438C23.9704 9.88021 24.9157 9.39844 26.1865 9.39844C27.4261 9.39844 28.3662 9.90104 29.0068 10.9062C29.6527 11.9115 29.9756 13.3672 29.9756 15.2734ZM23.7334 15.2734C23.7334 16.9349 23.9287 18.1458 24.3193 18.9062C24.71 19.6615 25.3324 20.0391 26.1865 20.0391C27.0511 20.0391 27.6761 19.6562 28.0615 18.8906C28.4521 18.1198 28.6475 16.9141 28.6475 15.2734C28.6475 13.6328 28.4521 12.4323 28.0615 11.6719C27.6761 10.9062 27.0511 10.5234 26.1865 10.5234C25.3324 10.5234 24.71 10.901 24.3193 11.6562C23.9287 12.4062 23.7334 13.612 23.7334 15.2734Z" fill="white"/>
<path d="M13.5459 31L11.124 24.6719H11.085C11.1305 25.1732 11.1533 25.7689 11.1533 26.459V31H10.3867V23.8613H11.6367L13.8975 29.75H13.9365L16.2168 23.8613H17.457V31H16.627V26.4004C16.627 25.873 16.6497 25.3001 16.6953 24.6816H16.6562L14.2148 31H13.5459Z" fill="white"/>
<path d="M19.2695 27.792C19.2695 26.6201 19.4421 25.707 19.7871 25.0527C20.1322 24.3952 20.679 23.985 21.4277 23.8223C22.3587 23.6237 23.179 23.4626 23.8887 23.3389L24.04 24.0518C22.9105 24.2406 22.1032 24.3903 21.6182 24.501C21.1462 24.6084 20.7913 24.8623 20.5537 25.2627C20.3193 25.6631 20.1908 26.2083 20.168 26.8984H20.2266C20.4284 26.625 20.6888 26.4102 21.0078 26.2539C21.3268 26.0977 21.6605 26.0195 22.0088 26.0195C22.6663 26.0195 23.179 26.2327 23.5469 26.6592C23.9147 27.0856 24.0986 27.6764 24.0986 28.4316C24.0986 29.2682 23.8854 29.9225 23.459 30.3945C23.0326 30.8633 22.4385 31.0977 21.6768 31.0977C20.9248 31.0977 20.3356 30.8096 19.9092 30.2334C19.4827 29.6572 19.2695 28.8434 19.2695 27.792ZM21.75 30.4189C22.7428 30.4189 23.2393 29.7858 23.2393 28.5195C23.2393 27.3118 22.7884 26.708 21.8867 26.708C21.6393 26.708 21.4001 26.7601 21.1689 26.8643C20.9411 26.9652 20.7311 27.1003 20.5391 27.2695C20.3503 27.4388 20.2038 27.613 20.0996 27.792C20.0996 28.6481 20.2347 29.3008 20.5049 29.75C20.7751 30.196 21.1901 30.4189 21.75 30.4189Z" fill="white"/>
<path d="M28.4746 23.8613L25.8135 31H25.0029L27.6641 23.8613H28.4746Z" fill="white"/>
<path d="M31.8252 31.0977C31.0505 31.0977 30.4499 30.86 30.0234 30.3848C29.6003 29.9062 29.3887 29.2308 29.3887 28.3584C29.3887 27.4632 29.6035 26.7715 30.0332 26.2832C30.4661 25.7949 31.0814 25.5508 31.8789 25.5508C32.1361 25.5508 32.3932 25.5785 32.6504 25.6338C32.9076 25.6891 33.1094 25.7542 33.2559 25.8291L33.0068 26.5176C32.8278 26.446 32.6325 26.3874 32.4209 26.3418C32.2093 26.293 32.0221 26.2686 31.8594 26.2686C30.7721 26.2686 30.2285 26.9619 30.2285 28.3486C30.2285 29.0062 30.3604 29.5107 30.624 29.8623C30.891 30.2139 31.2848 30.3896 31.8057 30.3896C32.2516 30.3896 32.709 30.2936 33.1777 30.1016V30.8193C32.8197 31.0049 32.3688 31.0977 31.8252 31.0977Z" fill="white"/>
<defs>
<linearGradient id="paint0_linear_1205_9938" x1="4.76129" y1="3.52131" x2="38.8562" y2="5.7584" gradientUnits="userSpaceOnUse">
<stop stop-color="#DD4C05"/>
<stop offset="1" stop-color="#D13730"/>
</linearGradient>
</defs>
</svg>
