<svg width="24" height="24" viewBox="0 0 24 24" fill="none" xmlns="http://www.w3.org/2000/svg">
<path d="M18.6 4C18.6 3.3 19.2 2.7 19.9 2.7C20.6 2.7 21.2 3.3 21.2 4V18.6H18.5L18.6 4ZM16 4V21.3H2.7V5.3C2.7 3.8 3.9 2.6 5.4 2.6H16.3C16 3.1 16 3.5 16 4ZM19.9 0H5.3C2.4 0 0 2.4 0 5.3V23.9H18.6V21.2H23.9V4C23.9 1.8 22.1 0 19.9 0ZM5.3 18.6H13.3V16H5.3V18.6ZM5.3 13.3H13.3V10.6H5.3V13.3ZM5.3 8H13.3V5.3H5.3V8Z" fill="url(#paint0_linear_809_4328)"/>
<defs>
<linearGradient id="paint0_linear_809_4328" x1="2.77548" y1="1.49377" x2="22.5829" y2="3.23435" gradientUnits="userSpaceOnUse">
<stop stop-color="#DD4C05"/>
<stop offset="1" stop-color="#D13730"/>
</linearGradient>
</defs>
</svg>
