<svg width="24" height="27" viewBox="0 0 24 27" fill="none" xmlns="http://www.w3.org/2000/svg">
<path d="M16 22.6001C16 24.8001 14.2 26.6001 12 26.6001C9.8 26.6001 8 24.8001 8 22.6001H0V19.9001H2.7V11.9001C2.7 8.30006 4.8 5.00006 8 3.50006C8.3 1.30006 10.2 -0.299939 12.4 6.05881e-05C14.2 0.200061 15.7 1.70006 15.9 3.50006C19.2 5.00006 21.2 8.30006 21.2 11.9001V19.9001H23.9V22.6001H16ZM10.6 22.6001C10.6 23.3001 11.2 23.9001 11.9 23.9001C12.6 23.9001 13.2 23.3001 13.2 22.6001C13.3 22.6001 10.6 22.6001 10.6 22.6001ZM10.6 5.40006C7.5 6.10006 5.3 8.80006 5.3 12.0001V20.0001H18.6V12.0001C18.6 8.80006 16.4 6.10006 13.3 5.50006V4.00006C13.3 3.30006 12.7 2.70006 12 2.70006C11.3 2.70006 10.7 3.30006 10.7 4.00006C10.6 4.00006 10.6 5.40006 10.6 5.40006Z" fill="url(#paint0_linear_809_4301)"/>
<defs>
<linearGradient id="paint0_linear_809_4301" x1="2.77548" y1="1.62865" x2="22.6126" y2="3.19277" gradientUnits="userSpaceOnUse">
<stop stop-color="#DD4C05"/>
<stop offset="1" stop-color="#D13730"/>
</linearGradient>
</defs>
</svg>
