<svg width="27" height="27" viewBox="0 0 27 27" fill="none" xmlns="http://www.w3.org/2000/svg">
<path d="M2.7 14.6C3.2 18.5 5.9 21.9 9.6 23.3C8.6 20.5 8 17.6 8 14.6H2.7ZM2.7 12H8C8 9 8.6 6.1 9.6 3.3C5.9 4.7 3.2 8 2.7 12ZM23.8 12C23.4 8 20.7 4.7 17 3.3C18 6.1 18.6 9 18.6 12H23.8ZM23.8 14.6H18.5C18.5 17.6 17.9 20.5 16.9 23.3C20.7 21.9 23.4 18.6 23.8 14.6ZM10.7 14.6C10.9 19.9 12.3 23.9 13.3 23.9C14.3 23.9 15.7 19.8 15.9 14.6H10.7ZM10.7 12H16C15.8 6.7 14.4 2.7 13.4 2.7C12.3 2.7 10.9 6.7 10.7 12ZM13.3 26.6C6 26.6 0 20.6 0 13.3C0 6 6 0 13.3 0C20.6 0 26.6 6 26.6 13.3C26.6 20.6 20.6 26.6 13.3 26.6Z" fill="url(#paint0_linear_809_4310)"/>
<defs>
<linearGradient id="paint0_linear_809_4310" x1="3.08903" y1="1.66252" x2="25.1342" y2="3.59974" gradientUnits="userSpaceOnUse">
<stop stop-color="#DD4C05"/>
<stop offset="1" stop-color="#D13730"/>
</linearGradient>
</defs>
</svg>
