<svg width="27" height="27" viewBox="0 0 27 27" fill="none" xmlns="http://www.w3.org/2000/svg">
<path d="M19.9 26.6H17.2V22.6C17.2 21.9 16.6 21.3 15.9 21.3C15.2 21.3 14.6 21.9 14.6 22.6V26.6H12H5.3V20H4C1.8 20 0 18.2 0 16C0 13.8 1.8 12 4 12H5.3V5.4H12V4C12 1.8 13.8 0 16 0C18.2 0 20 1.8 20 4V5.3H26.6V14.6H22.6C21.9 14.6 21.3 15.2 21.3 15.9C21.3 16.6 21.9 17.2 22.6 17.2H26.6V26.5H19.9V26.6ZM23.9 23.9V19.9H22.6C20.4 19.9 18.6 18.1 18.6 15.9C18.6 13.7 20.4 11.9 22.6 11.9H23.9V8H17.3V4C17.3 3.3 16.7 2.7 16 2.7C15.3 2.7 14.7 3.3 14.7 4V8H8V14.6H4C3.3 14.6 2.7 15.2 2.7 15.9C2.7 16.6 3.3 17.2 4 17.2H8V23.8H12V22.5C12 20.3 13.8 18.5 16 18.5C18.2 18.5 20 20.3 20 22.5V23.8L23.9 23.9Z" fill="url(#paint0_linear_809_4319)"/>
<defs>
<linearGradient id="paint0_linear_809_4319" x1="3.08903" y1="1.66252" x2="25.1342" y2="3.59974" gradientUnits="userSpaceOnUse">
<stop stop-color="#DD4C05"/>
<stop offset="1" stop-color="#D13730"/>
</linearGradient>
</defs>
</svg>
